<svg width="70" height="70" viewBox="0 0 60 60" fill="none" xmlns="http://www.w3.org/2000/svg">
<g filter="url(#filter0_d_35_1832)">
<circle cx="32" cy="28" r="20" fill="#5603AD"/>
</g>
<path d="M41 38.6H23V19.7C23 18.2114 24.2114 17 25.7 17H38.3C39.7886 17 41 18.2114 41 19.7V38.6ZM24.8 36.8H39.2V19.7C39.2 19.2041 38.7959 18.8 38.3 18.8H25.7C25.2041 18.8 24.8 19.2041 24.8 19.7V36.8ZM37.4 21.5H32V23.3H37.4V21.5ZM37.4 26.9H32V28.7H37.4V26.9ZM37.4 32.3H32V34.1H37.4V32.3ZM30.2 20.6H26.6V24.2H30.2V20.6ZM30.2 26H26.6V29.6H30.2V26ZM30.2 31.4H26.6V35H30.2V31.4Z" fill="white"/>
<defs>
<filter id="filter0_d_35_1832" x="0" y="0" width="60" height="60" filterUnits="userSpaceOnUse" color-interpolation-filters="sRGB">
<feFlood flood-opacity="0" result="BackgroundImageFix"/>
<feColorMatrix in="SourceAlpha" type="matrix" values="0 0 0 0 0 0 0 0 0 0 0 0 0 0 0 0 0 0 127 0" result="hardAlpha"/>
<feOffset dx="-2" dy="2"/>
<feGaussianBlur stdDeviation="5"/>
<feComposite in2="hardAlpha" operator="out"/>
<feColorMatrix type="matrix" values="0 0 0 0 0 0 0 0 0 0 0 0 0 0 0 0 0 0 0.25 0"/>
<feBlend mode="normal" in2="BackgroundImageFix" result="effect1_dropShadow_35_1832"/>
<feBlend mode="normal" in="SourceGraphic" in2="effect1_dropShadow_35_1832" result="shape"/>
</filter>
</defs>
</svg>
