<svg width="70" height="70" viewBox="0 0 60 60" fill="none" xmlns="http://www.w3.org/2000/svg">
<g filter="url(#filter0_d_46_49)">
<circle cx="32" cy="28" r="20" fill="white"/>
</g>
<path d="M32 8C28.0444 8 24.1776 9.17298 20.8886 11.3706C17.5996 13.5682 15.0362 16.6918 13.5224 20.3463C12.0087 24.0009 11.6126 28.0222 12.3843 31.9018C13.156 35.7814 15.0608 39.3451 17.8579 42.1421C20.6549 44.9392 24.2186 46.844 28.0982 47.6157C31.9778 48.3874 35.9992 47.9913 39.6537 46.4776C43.3082 44.9638 46.4318 42.4004 48.6294 39.1114C50.827 35.8224 52 31.9556 52 28C51.9943 22.6974 49.8853 17.6137 46.1358 13.8642C42.3863 10.1147 37.3026 8.00574 32 8ZM38.6667 29.6667H33.6667V34.6667C33.6667 35.1087 33.4911 35.5326 33.1785 35.8452C32.866 36.1577 32.442 36.3333 32 36.3333C31.558 36.3333 31.1341 36.1577 30.8215 35.8452C30.5089 35.5326 30.3333 35.1087 30.3333 34.6667V29.6667H25.3333C24.8913 29.6667 24.4674 29.4911 24.1548 29.1785C23.8423 28.8659 23.6667 28.442 23.6667 28C23.6667 27.558 23.8423 27.134 24.1548 26.8215C24.4674 26.5089 24.8913 26.3333 25.3333 26.3333H30.3333V21.3333C30.3333 20.8913 30.5089 20.4674 30.8215 20.1548C31.1341 19.8423 31.558 19.6667 32 19.6667C32.442 19.6667 32.866 19.8423 33.1785 20.1548C33.4911 20.4674 33.6667 20.8913 33.6667 21.3333V26.3333H38.6667C39.1087 26.3333 39.5326 26.5089 39.8452 26.8215C40.1577 27.134 40.3333 27.558 40.3333 28C40.3333 28.442 40.1577 28.8659 39.8452 29.1785C39.5326 29.4911 39.1087 29.6667 38.6667 29.6667Z" fill="#5603AD"/>
<defs>
<filter id="filter0_d_46_49" x="0" y="0" width="60" height="60" filterUnits="userSpaceOnUse" color-interpolation-filters="sRGB">
<feFlood flood-opacity="0" result="BackgroundImageFix"/>
<feColorMatrix in="SourceAlpha" type="matrix" values="0 0 0 0 0 0 0 0 0 0 0 0 0 0 0 0 0 0 127 0" result="hardAlpha"/>
<feOffset dx="-2" dy="2"/>
<feGaussianBlur stdDeviation="5"/>
<feComposite in2="hardAlpha" operator="out"/>
<feColorMatrix type="matrix" values="0 0 0 0 0 0 0 0 0 0 0 0 0 0 0 0 0 0 0.25 0"/>
<feBlend mode="normal" in2="BackgroundImageFix" result="effect1_dropShadow_46_49"/>
<feBlend mode="normal" in="SourceGraphic" in2="effect1_dropShadow_46_49" result="shape"/>
</filter>
</defs>
</svg>
