<svg width="210" height="251" viewBox="0 0 210 251" fill="none" xmlns="http://www.w3.org/2000/svg">
<path d="M197.757 242.495H89.4484C82.6871 242.495 77.2053 237.014 77.2053 230.252V19.0175C77.2053 12.2562 82.6864 6.7744 89.4484 6.7744H197.757C204.518 6.7744 210 12.2562 210 19.0175V230.252C210 237.014 204.518 242.495 197.757 242.495Z" fill="#263238"/>
<path d="M198.002 242.44H89.6588C82.7976 242.44 77.2349 236.878 77.2349 230.016V221.82H209.999V230.442C210 237.068 204.628 242.44 198.002 242.44Z" fill="#455A64"/>
<path d="M210 22.2516H77.2349V19.019C77.2349 12.2548 82.7188 6.77077 89.4831 6.77077H197.869C204.569 6.77077 209.999 12.2015 209.999 18.9009V22.2516H210Z" fill="#455A64"/>
<path d="M143.92 18.5422C145.665 18.5422 147.079 17.1278 147.079 15.3832C147.079 13.6385 145.665 12.2241 143.92 12.2241C142.176 12.2241 140.761 13.6385 140.761 15.3832C140.761 17.1278 142.176 18.5422 143.92 18.5422Z" fill="white"/>
<path d="M187.933 29.0231C198.292 29.0231 206.689 37.4204 206.689 47.7796V221.816H82.3672V31.1891L187.933 29.0231Z" fill="#EBEBEB"/>
<g opacity="0.3">
<path d="M79.2164 236.745H159.663C173.212 236.745 184.195 225.762 184.195 212.213V50.0907C184.195 50.0907 184.728 34.1003 191.48 30.724L150.437 37.4758L153.812 216.038L77.2349 230.02C77.2349 230.02 77.3275 234.464 79.2164 236.745Z" fill="black"/>
</g>
<path d="M57.4846 59.8339V233.484H151.946C166.728 233.484 178.71 224.827 178.71 200.953V29.6078H82.3528C68.6188 29.6078 57.4846 43.1406 57.4846 59.8339Z" fill="#F5F5F5"/>
<path d="M57.4845 196.878C57.4845 196.878 57.4714 196.699 57.4648 196.349C57.4604 195.988 57.4539 195.472 57.4458 194.799C57.4378 193.423 57.4254 191.417 57.4101 188.836C57.3955 183.645 57.3751 176.156 57.3496 166.904C57.335 148.376 57.3161 122.799 57.2942 94.5495C57.2956 87.4835 57.2971 80.5851 57.2978 73.9222C57.2993 70.5912 57.3008 67.3184 57.3022 64.1142C57.3314 60.9202 57.1972 57.7524 57.6915 54.7057C58.5241 48.6086 60.9402 43.0626 64.3369 38.7736C66.0691 36.6615 67.9734 34.7893 70.0921 33.3734C70.5937 32.9819 71.1718 32.7158 71.6989 32.3863C71.968 32.2295 72.2355 32.0735 72.5016 31.9182C72.7707 31.7695 73.0601 31.6623 73.3364 31.534C73.8956 31.2912 74.4417 31.0331 74.9936 30.8115C75.563 30.6351 76.1258 30.4601 76.6821 30.2873C77.231 30.0868 77.8019 30.0015 78.3611 29.8995C78.9217 29.8091 79.4685 29.6683 80.0204 29.6231C81.1257 29.5728 82.2061 29.4533 83.2465 29.4868C85.3316 29.4919 87.2979 29.497 89.1373 29.5014C92.8118 29.5138 95.9788 29.5247 98.5721 29.5335C101.153 29.5488 103.159 29.5612 104.534 29.5692C105.207 29.5772 105.723 29.5838 106.085 29.5881C106.434 29.5947 106.614 29.6078 106.614 29.6078C106.614 29.6078 106.435 29.621 106.085 29.6275C105.723 29.6319 105.207 29.6385 104.534 29.6465C103.159 29.6545 101.153 29.6669 98.5721 29.6822C95.9795 29.6909 92.8125 29.7019 89.1373 29.7143C87.2979 29.7186 85.3316 29.7237 83.2465 29.7288C82.1996 29.7004 81.1432 29.8244 80.0489 29.8768C79.5042 29.9235 78.9647 30.0649 78.4114 30.1568C77.8595 30.2596 77.2967 30.3456 76.755 30.5461C76.2067 30.7182 75.6512 30.8932 75.0898 31.0696C74.5452 31.2912 74.0071 31.5479 73.456 31.7892C73.184 31.9175 72.899 32.0232 72.6336 32.1712C72.3711 32.3258 72.1072 32.4803 71.8426 32.6363C71.3227 32.9637 70.7534 33.2269 70.2583 33.6162C68.1696 35.0204 66.2922 36.8773 64.5848 38.9704C61.2369 43.2208 58.8544 48.7157 58.0393 54.7553C57.5545 57.7677 57.6915 60.9107 57.666 64.1157C57.6675 67.3206 57.6689 70.5926 57.6704 73.9237C57.6718 80.5866 57.6726 87.4849 57.674 94.551C57.6522 122.801 57.6325 148.377 57.6186 166.906C57.5931 176.157 57.5727 183.646 57.5581 188.837C57.5428 191.418 57.5304 193.424 57.5224 194.8C57.5144 195.473 57.5078 195.989 57.5034 196.351C57.4976 196.699 57.4845 196.878 57.4845 196.878Z" fill="#263238"/>
<path d="M83.7879 82.6221C89.7713 82.6221 94.6217 77.7716 94.6217 71.7883C94.6217 65.8049 89.7713 60.9544 83.7879 60.9544C77.8046 60.9544 72.9541 65.8049 72.9541 71.7883C72.9541 77.7716 77.8046 82.6221 83.7879 82.6221Z" fill="#8367C7"/>
<path d="M83.1531 76.8829L77.5547 72.556L79.0646 70.6028L82.8185 73.5037L88.1581 67.36L90.0216 68.9799L83.1531 76.8829Z" fill="white"/>
<path d="M193.425 29.898C185.779 32.5292 178.666 38.3937 178.69 49.3055V67.5867H170.369V29.4292L189.565 29.0698C191.015 29.0698 191.795 29.3351 193.425 29.898Z" fill="#F5F5F5"/>
<path d="M157.306 66.2102H103.47V72.5283H157.306V66.2102Z" fill="#E0E0E0"/>
<path d="M136.33 80.1557H103.47V86.4737H136.33V80.1557Z" fill="#E0E0E0"/>
<path d="M83.7879 123.184C89.7713 123.184 94.6217 118.334 94.6217 112.35C94.6217 106.367 89.7713 101.516 83.7879 101.516C77.8046 101.516 72.9541 106.367 72.9541 112.35C72.9541 118.334 77.8046 123.184 83.7879 123.184Z" fill="#8367C7"/>
<path d="M157.306 106.773H103.47V113.092H157.306V106.773Z" fill="#E0E0E0"/>
<path d="M136.33 120.718H103.47V127.036H136.33V120.718Z" fill="#E0E0E0"/>
<path d="M83.7879 164.111C77.6135 164.111 72.5903 159.087 72.5903 152.913C72.5903 146.738 77.6135 141.715 83.7879 141.715C89.9623 141.715 94.9856 146.739 94.9856 152.913C94.9856 159.087 89.9623 164.111 83.7879 164.111ZM83.7879 142.444C78.0153 142.444 73.3194 147.139 73.3194 152.912C73.3194 158.685 78.0153 163.381 83.7879 163.381C89.5606 163.381 94.2565 158.685 94.2565 152.912C94.2565 147.14 89.5606 142.444 83.7879 142.444Z" fill="#8367C7"/>
<path d="M157.306 147.335H103.47V153.653H157.306V147.335Z" fill="#E0E0E0"/>
<path d="M136.33 161.28H103.47V167.599H136.33V161.28Z" fill="#E0E0E0"/>
<path d="M83.7879 204.673C77.6135 204.673 72.5903 199.649 72.5903 193.476C72.5903 187.301 77.6135 182.278 83.7879 182.278C89.9623 182.278 94.9856 187.302 94.9856 193.476C94.9856 199.649 89.9623 204.673 83.7879 204.673ZM83.7879 183.006C78.0153 183.006 73.3194 187.702 73.3194 193.475C73.3194 199.247 78.0153 203.943 83.7879 203.943C89.5606 203.943 94.2565 199.247 94.2565 193.475C94.2565 187.702 89.5606 183.006 83.7879 183.006Z" fill="#8367C7"/>
<path d="M157.306 187.898H103.47V194.216H157.306V187.898Z" fill="#E0E0E0"/>
<path d="M136.33 201.843H103.47V208.161H136.33V201.843Z" fill="#E0E0E0"/>
<g opacity="0.3">
<path d="M147.899 204.309H137.482H137.09L131.453 215.588C131.453 215.836 146.156 233.484 146.156 233.484H154.695C139.36 228.228 147.899 204.309 147.899 204.309Z" fill="black"/>
</g>
<path d="M21.765 196.878C21.765 197.73 18.6132 228.944 39.2405 233.485H132.108H154.694C154.694 233.485 132.921 226.107 137.792 196.878H21.765Z" fill="#EBEBEB"/>
<path d="M83.1531 117.852L77.5547 113.526L79.0646 111.572L82.8185 114.473L88.1581 108.329L90.0216 109.949L83.1531 117.852Z" fill="white"/>
<path d="M151.946 233.484C151.946 233.484 152.143 233.464 152.528 233.443C152.923 233.424 153.492 233.396 154.234 233.359C154.985 233.336 155.902 233.169 156.992 233.05C157.538 232.993 158.109 232.827 158.728 232.708C159.346 232.579 160.006 232.45 160.678 232.208C163.394 231.417 166.665 229.951 169.631 227.195C172.587 224.463 175.186 220.478 176.611 215.586C177.322 213.147 177.893 210.533 178.166 207.767C178.236 207.076 178.307 206.378 178.379 205.673C178.461 204.969 178.439 204.251 178.475 203.53C178.524 202.086 178.572 200.616 178.553 199.114C178.547 193.111 178.541 186.697 178.535 179.949C178.531 166.45 178.526 151.611 178.521 136.035C178.54 104.876 178.557 76.6708 178.57 56.2433C178.579 53.6894 178.546 51.2638 178.591 48.9578C178.681 46.651 179.069 44.4813 179.747 42.5566C180.417 40.6275 181.375 38.9638 182.419 37.5684C183.458 36.1664 184.581 35.0218 185.668 34.0908C187.854 32.2302 189.879 31.2314 191.262 30.6555C192.655 30.0839 193.426 29.8987 193.426 29.8987C193.426 29.8987 193.243 29.9731 192.88 30.0999C192.517 30.2275 191.978 30.4229 191.292 30.7262C189.923 31.3233 187.92 32.3381 185.764 34.2031C184.692 35.137 183.586 36.2794 182.565 37.6763C181.539 39.0659 180.601 40.7165 179.948 42.6266C179.288 44.5317 178.913 46.6795 178.834 48.9672C178.798 51.2587 178.839 53.6945 178.839 56.2454C178.855 76.6722 178.877 104.877 178.901 136.035C178.896 151.612 178.891 166.45 178.886 179.949C178.88 186.697 178.874 193.111 178.868 199.114C178.885 200.614 178.833 202.092 178.78 203.542C178.742 204.267 178.762 204.988 178.677 205.696C178.604 206.405 178.531 207.106 178.459 207.801C178.175 210.581 177.593 213.211 176.868 215.666C175.416 220.589 172.774 224.609 169.776 227.351C166.765 230.12 163.458 231.575 160.721 232.35C160.043 232.587 159.379 232.712 158.757 232.835C158.133 232.949 157.56 233.111 157.011 233.161C155.916 233.269 154.994 233.424 154.241 233.435C153.496 233.455 152.926 233.47 152.53 233.481C152.143 233.49 151.946 233.484 151.946 233.484Z" fill="#263238"/>
<path d="M39.2402 233.484C39.2402 233.484 38.9727 233.429 38.4572 233.298C38.1955 233.231 37.8762 233.149 37.4992 233.053C37.1223 232.944 36.7002 232.77 36.2132 232.598C34.3052 231.868 31.5064 230.438 28.9292 227.506C26.3556 224.601 24.1567 220.277 22.9137 215C21.6437 209.734 21.1618 203.544 21.6079 196.877L21.6182 196.721H21.764C38.151 196.711 58.0689 196.699 79.5361 196.687C101.23 196.699 121.34 196.712 137.791 196.721H137.975L137.945 196.903C136.848 203.418 137.032 209.579 138.456 214.722C139.849 219.884 142.442 223.885 145.019 226.663C147.611 229.46 150.143 231.121 151.9 232.121C152.784 232.62 153.487 232.954 153.965 233.168C154.443 233.382 154.693 233.484 154.693 233.484C154.693 233.484 154.432 233.413 153.946 233.212C153.461 233.012 152.749 232.691 151.854 232.202C150.076 231.225 147.516 229.581 144.887 226.784C142.276 224.007 139.638 219.986 138.212 214.789C136.756 209.611 136.551 203.405 137.637 196.852L137.791 197.033C121.339 197.043 101.23 197.054 79.5361 197.068C58.0697 197.055 38.151 197.044 21.764 197.034L21.92 196.877C21.4578 203.557 21.9185 209.691 23.1594 214.941C24.374 220.193 26.5335 224.49 29.0633 227.388C31.5968 230.311 34.3577 231.756 36.246 232.51C36.7272 232.688 37.1449 232.869 37.5189 232.985C37.8929 233.09 38.2086 233.179 38.4682 233.252C38.9792 233.397 39.2402 233.484 39.2402 233.484Z" fill="#263238"/>
<g opacity="0.3">
<path d="M166.835 0.987872C166.75 0.538772 166.444 0.101339 165.999 0C165.961 1.71621 165.481 3.61905 165.255 5.32067C166.116 4.84095 166.526 3.30993 166.732 2.34538C166.827 1.89847 166.92 1.43697 166.835 0.987872Z" fill="black"/>
</g>
<path d="M51.2914 117.295C51.2914 117.295 56.1316 137.967 56.3372 150.824C56.5428 163.681 56.7484 184.125 54.0735 206.677C51.3985 229.229 49.1151 239.164 49.1151 239.164L39.6366 237.688C39.6366 237.688 39.3486 224.064 38.3907 212.71C37.327 200.107 39.31 195.394 38.0954 181.484C36.8808 167.574 32.1922 158.697 30.1683 154.482C30.1683 154.482 24.5626 147.818 24.1514 138.677C23.7395 129.536 25.9434 117.295 25.9434 117.295H51.2914Z" fill="#FFBF9D"/>
<path d="M37.1198 145.343C36.8938 146.037 33.7137 162.146 30.7734 174.643C27.8331 187.141 25.8894 198.806 23.1241 208.606C19.0632 223.001 15.555 237.604 15.555 237.604L5.29565 238.57C5.97003 238.098 5.29128 216.945 8.8746 200.194C12.4339 183.553 13.8461 162.469 13.394 156.221C12.942 149.972 12.4944 142.985 14.0764 134.23C15.6585 125.475 18.3954 122.437 18.3954 122.437L30.664 121.882L37.1198 145.343Z" fill="#FFBF9D"/>
<path d="M10.3364 165.72L32.3839 168.583L32.9876 164.461L33.9929 168.19L57.5693 167.878C57.0786 154.924 56.5077 142.441 54.9818 135.561L12.7773 133.065C12.7773 133.065 11.6188 142.742 11.309 147.75C10.916 154.086 10.3364 165.72 10.3364 165.72Z" fill="#B3E9C7"/>
<path d="M33.7029 168.009C33.6716 168.01 33.638 167.603 33.5469 166.874C33.458 166.145 33.3056 165.091 32.995 163.817C32.4023 161.265 31.0936 157.839 28.8824 154.494C27.7917 152.812 26.6821 151.24 25.8218 149.71C24.9506 148.187 24.3535 146.701 24.0429 145.406C23.7214 144.112 23.6893 143.02 23.7469 142.28C23.7761 141.909 23.8169 141.623 23.8606 141.433C23.9015 141.242 23.9284 141.144 23.9416 141.146C24.032 141.141 23.6025 142.8 24.3032 145.34C24.6415 146.601 25.2495 148.043 26.1258 149.537C26.9912 151.039 28.103 152.596 29.2017 154.289C31.4363 157.668 32.7274 161.167 33.2575 163.758C33.5374 165.054 33.6504 166.123 33.6942 166.861C33.7233 167.23 33.7212 167.517 33.7226 167.712C33.7226 167.906 33.7161 168.008 33.7029 168.009Z" fill="#263238"/>
<path d="M50.3634 229.853L49.2526 238.027L49.2245 238.233L49.3513 238.398C49.3947 238.455 49.4375 238.511 49.48 238.566C50.5703 239.988 51.3613 241.02 52.3179 241.754C53.3383 242.538 54.5163 242.966 56.3638 243.279C56.5119 243.304 56.6602 243.328 56.808 243.352C57.5629 243.475 58.3069 243.596 58.9708 243.836C59.7466 244.115 60.3299 244.528 60.634 245.223C60.9947 246.048 60.7919 247.122 60.225 247.873C59.6606 248.621 58.7931 249.087 57.8533 249.342L57.8532 249.342C55.5464 249.968 53.6258 249.593 51.5967 249.079C51.3858 249.025 51.1734 248.97 50.9592 248.914C49.1237 248.437 47.1513 247.925 44.8118 248.112C44.4022 248.145 43.9803 248.201 43.5712 248.256C43.4846 248.267 43.3987 248.279 43.3135 248.29C42.8174 248.354 42.3407 248.41 41.8829 248.422C40.9685 248.445 40.1975 248.292 39.5804 247.75L39.5803 247.749C39.1744 247.393 38.9541 246.888 38.8634 246.268C38.772 245.644 38.8187 244.94 38.9152 244.242C39.1079 242.848 39.3297 241.984 39.8426 240.184C39.9574 239.782 40.0225 239.167 40.061 238.494C40.1002 237.807 40.1136 237.016 40.1114 236.237C40.1079 234.959 40.0624 233.694 40.0164 232.947L50.3634 229.853Z" fill="#B3E9C7" stroke="#8367C7"/>
<path d="M16.1244 229.709L14.994 238.027L14.966 238.233L15.0928 238.398C15.1361 238.455 15.179 238.511 15.2214 238.566C16.3117 239.988 17.1028 241.02 18.0594 241.754C19.0797 242.538 20.2578 242.966 22.1052 243.279C22.2534 243.304 22.4016 243.328 22.5494 243.352C23.3044 243.475 24.0484 243.596 24.7122 243.836C25.4881 244.115 26.0714 244.528 26.3755 245.223C26.7362 246.048 26.5334 247.122 25.9665 247.873L25.9663 247.874C25.4027 248.621 24.5348 249.087 23.5948 249.342L23.5947 249.342C21.2875 249.968 19.3669 249.593 17.3378 249.079C17.127 249.025 16.9146 248.97 16.7003 248.914C14.8649 248.437 12.8927 247.925 10.5532 248.112C10.1437 248.145 9.72177 248.201 9.31266 248.256C9.22611 248.267 9.14012 248.279 9.05495 248.29C8.55884 248.354 8.0822 248.41 7.62434 248.422C6.70997 248.445 5.93899 248.292 5.32182 247.75L5.32178 247.749C4.91584 247.393 4.69551 246.888 4.60486 246.268C4.5135 245.644 4.56011 244.94 4.65663 244.242C4.84931 242.848 5.07118 241.984 5.5841 240.184C5.69655 239.79 5.79781 239.029 5.88719 238.142C5.97833 237.236 6.06133 236.15 6.1286 235.073C6.23713 233.335 6.30771 231.576 6.29963 230.643L16.1244 229.709Z" fill="#B3E9C7" stroke="#8367C7"/>
<path d="M21.3375 34.3795C23.4605 33.7233 25.8468 33.9698 27.7897 35.0466C28.8716 33.6555 30.7322 32.9148 32.4739 33.1809C34.2156 33.447 35.77 34.7105 36.3868 36.3618C38.2393 35.6138 40.5818 36.4085 41.5959 38.1298C42.61 39.8511 42.1711 42.2854 40.619 43.543C42.1332 44.1722 43.3274 45.5253 43.7619 47.1067C44.1964 48.688 43.8633 50.4618 42.8834 51.7763C44.5056 52.5622 44.7833 54.7581 44.5442 56.5451C44.3044 58.3313 43.7904 60.2458 44.5916 61.8606C45.2106 63.1081 46.4864 63.8794 47.3598 64.9642C48.2325 66.0491 48.538 67.9169 47.3555 68.6526C49.3699 68.9238 50.9242 71.0679 50.556 73.067C50.1879 75.0661 47.9708 76.5147 45.9929 76.051C46.6519 77.4574 46.3676 79.1904 45.5022 80.4794C44.6361 81.7683 43.2603 82.6498 41.8 83.1783C37.5977 84.7006 32.5002 83.2629 29.7122 79.7692L16.3887 38.5723C17.3846 36.5863 19.2152 35.0356 21.3375 34.3795Z" fill="#263238"/>
<path d="M15.0009 45.7944L14.823 43.5715L28.0357 40.2251C32.1309 39.5412 36.8355 43.4038 37.3451 47.5237C37.9109 52.1015 38.4212 57.713 38.0829 61.1739C37.4027 68.1342 32.1717 69.3291 32.1717 69.3291L32.5544 76.175L17.3193 77.2839L15.0009 45.7944Z" fill="#FFBF9D"/>
<path d="M35.7302 54.0889C35.7747 54.5547 35.4168 54.9769 34.9312 55.0323C34.4464 55.0877 34.017 54.756 33.9725 54.2901C33.928 53.8242 34.2853 53.4021 34.7701 53.346C35.2556 53.2906 35.6858 53.623 35.7302 54.0889Z" fill="#263238"/>
<path d="M36.0639 50.5398C35.9611 50.6616 35.2612 50.2059 34.3098 50.2657C33.3591 50.3116 32.6898 50.8431 32.5797 50.733C32.5258 50.6849 32.6249 50.4698 32.9158 50.23C33.2023 49.9916 33.6996 49.7466 34.2923 49.7138C34.885 49.681 35.3968 49.8698 35.6965 50.0754C36.0034 50.2825 36.1149 50.4851 36.0639 50.5398Z" fill="#263238"/>
<path d="M27.3867 54.605C27.4312 55.0709 27.0732 55.493 26.5877 55.5484C26.1029 55.6039 25.6734 55.2721 25.6282 54.8063C25.5838 54.3404 25.9417 53.9175 26.4258 53.8629C26.9121 53.8067 27.3423 54.1392 27.3867 54.605Z" fill="#263238"/>
<path d="M26.7224 51.2798C26.6196 51.4016 25.919 50.9466 24.9683 51.0057C24.0176 51.0516 23.3483 51.5831 23.2382 51.473C23.185 51.4249 23.2827 51.2098 23.5743 50.97C23.8601 50.7316 24.358 50.4866 24.9508 50.4531C25.5435 50.4203 26.0553 50.6091 26.3557 50.8147C26.6604 51.0225 26.7727 51.2251 26.7224 51.2798Z" fill="#263238"/>
<path d="M30.5996 58.1286C30.5916 58.0746 31.1778 57.9376 32.1285 57.7568C32.3698 57.7167 32.5973 57.6547 32.6279 57.4863C32.6745 57.3069 32.5572 57.0518 32.4223 56.7762C32.1584 56.2017 31.8828 55.6002 31.5926 54.9696C30.4363 52.3953 29.5841 50.273 29.6883 50.2278C29.7926 50.1818 30.814 52.2312 31.9703 54.8055C32.2495 55.4405 32.5163 56.0457 32.77 56.6253C32.8787 56.8957 33.0558 57.1998 32.9538 57.5716C32.8991 57.7568 32.7285 57.8997 32.5754 57.9507C32.4223 58.0076 32.286 58.0185 32.1664 58.0331C31.2048 58.1417 30.6062 58.1818 30.5996 58.1286Z" fill="#263238"/>
<path d="M32.1707 69.3474C32.1707 69.3474 27.3145 69.9255 22.553 67.4401C22.553 67.4401 25.1718 72.1273 32.2692 71.0665L32.1707 69.3474Z" fill="#FF9A6C"/>
<path d="M26.5024 47.9961C26.4083 48.2549 25.4569 48.1325 24.3385 48.2673C23.2172 48.3796 22.3161 48.707 22.1674 48.4751C22.101 48.3636 22.2585 48.1201 22.6231 47.8693C22.9839 47.6185 23.5614 47.3808 24.2328 47.3057C24.9043 47.2321 25.5189 47.3392 25.9257 47.5047C26.3362 47.6695 26.5432 47.8729 26.5024 47.9961Z" fill="#263238"/>
<path d="M35.8336 48.1835C35.6812 48.411 35.0105 48.2316 34.2224 48.2754C33.4328 48.2914 32.7774 48.5211 32.6083 48.3053C32.5339 48.2003 32.6236 47.9765 32.9013 47.7519C33.1747 47.5281 33.6435 47.329 34.1859 47.3079C34.7284 47.2882 35.211 47.4508 35.5004 47.6535C35.7935 47.8569 35.9007 48.0727 35.8336 48.1835Z" fill="#263238"/>
<path d="M29.911 60.4361C29.5975 59.9753 29.0223 59.7026 28.4354 59.7362C28.0286 59.7595 27.6093 59.9345 27.3469 60.2516C27.0844 60.5688 27.0093 61.0346 27.2171 61.3598C27.4511 61.7265 27.9731 61.8344 28.4252 61.7302C28.8772 61.6259 29.2745 61.3518 29.6536 61.0784C29.7586 61.0025 29.8651 60.9238 29.9336 60.8159C30.0021 60.7087 30.0225 60.5644 29.9496 60.4689" fill="#FF9A6C"/>
<path d="M27.6397 58.7148C27.7921 58.7133 27.7433 59.7267 28.5737 60.4886C29.4026 61.2533 30.4882 61.1936 30.4889 61.3357C30.4998 61.3999 30.2388 61.5202 29.7824 61.51C29.3348 61.5027 28.6896 61.327 28.1807 60.8604C27.674 60.393 27.4757 59.793 27.4619 59.376C27.4458 58.951 27.5712 58.7053 27.6397 58.7148Z" fill="#263238"/>
<path d="M11.4161 81.5518L10.749 80.3809C10.749 80.3809 6.52922 85.6127 6.07283 88.927C5.69591 91.666 3.63558 106.511 2.58574 113.502C2.15705 116.356 2.87736 119.31 4.79041 121.533C6.60869 123.647 9.35651 125.135 13.0747 122.633C15.6293 120.914 22.1661 113.892 22.1661 113.892L11.4161 81.5518Z" fill="#FFBF9D"/>
<path d="M18.4252 114.556L0.132324 111.616C0.132324 111.616 3.81553 91.7725 5.01192 89.3644C6.20903 86.9563 8.54056 83.4765 8.54056 83.4765L17.5415 102.755L18.4252 114.556Z" fill="#E0E0E0"/>
<path d="M57.6192 143.903C57.6192 143.903 56.8908 136.565 55.4597 128.307C53.7143 118.237 47.9577 100.872 47.9577 100.872L16.977 115.142L17.5413 121.536C17.5413 121.536 10.9747 133.921 10.4104 144.035C24.447 148.764 41.1344 147.928 57.6192 143.903Z" fill="#E0E0E0"/>
<path d="M8.66741 79.1015L34.627 74.9531C34.627 74.9531 41.8345 86.6545 44.5313 98.9508C47.2281 111.247 48.283 120.027 48.283 120.027L27.1979 123.226C24.7009 123.51 21.2984 126.508 18.8108 126.161L16.3123 125.812L18.3661 118.005C14.9388 110.113 12.4381 103.371 10.953 97.804C7.73057 85.7242 8.66741 79.1015 8.66741 79.1015Z" fill="#E0E0E0"/>
<path d="M70.3328 83.1229C70.2533 83.3431 60.1588 97.1646 60.1588 97.1646C60.1588 97.1646 50.7445 87.3858 47.8785 83.7893L42.9778 99.5253C42.9778 99.5253 52.6823 109.22 56.9808 110.835C61.2794 112.45 64.6206 109.977 66.452 108.215C68.2834 106.454 76.0946 88.4567 76.0946 88.4567L70.3328 83.1229Z" fill="#FFBF9D"/>
<path d="M32.1855 75.3439C32.1855 75.3439 36.2413 73.0408 40.3605 75.4817C44.4797 77.9226 60.5285 94.3242 60.5285 94.3242L50.4077 107.264L34.7898 92.1385L33.8048 83.0376L32.1855 75.3439Z" fill="#E0E0E0"/>
<path d="M60.4108 103.507C60.4975 103.506 60.5471 102.148 60.5216 100.475C60.4954 98.8006 60.4042 97.4446 60.3167 97.4453C60.23 97.4468 60.1804 98.8043 60.2059 100.479C60.2322 102.152 60.324 103.509 60.4108 103.507Z" fill="#FF9A6C"/>
<g opacity="0.3">
<path d="M45.5408 102.55C42.871 102.186 40.3033 101.645 38.5295 99.7696C36.7549 97.8944 35.735 95.4251 35.7065 92.9368C39.2935 96.1593 42.4569 99.6376 45.5408 102.55Z" fill="black"/>
</g>
<path d="M60.5286 94.3242C60.5381 94.3308 60.4805 94.4241 60.3616 94.5976C60.218 94.7996 60.0409 95.0474 59.8258 95.35C59.3169 96.0368 58.6279 96.9663 57.783 98.108C55.9917 100.472 53.5435 103.704 50.7687 107.365L50.6382 107.538L50.4785 107.385C49.7553 106.696 48.9993 105.974 48.2294 105.239C44.3457 101.498 40.8323 98.1139 38.2434 95.6205C37.0062 94.4051 35.9928 93.4085 35.2492 92.678C34.9255 92.3492 34.6609 92.0802 34.4487 91.8658C34.2686 91.6777 34.1789 91.5742 34.1884 91.5662C34.1979 91.5574 34.3065 91.6442 34.5041 91.817C34.7294 92.0197 35.0108 92.2734 35.3556 92.5832C36.1212 93.2948 37.1644 94.2652 38.4381 95.4484C41.0474 97.9236 44.5899 101.282 48.5042 104.995C49.2734 105.731 50.028 106.454 50.7497 107.144L50.4596 107.164C53.2752 103.53 55.7598 100.322 57.5781 97.9753C58.4617 96.8592 59.182 95.95 59.7142 95.2785C59.9512 94.9906 60.1451 94.7544 60.3041 94.5612C60.4426 94.3993 60.5191 94.3176 60.5286 94.3242Z" fill="#263238"/>
<path d="M17.1514 120.98C17.1186 120.98 17.0872 120.432 17.0603 119.467C17.0428 118.421 17.0202 117.061 16.9932 115.455L17.0034 115.51C16.2998 113.669 15.4702 111.5 14.5785 109.168C13.3785 105.985 12.3119 103.096 11.558 100.999C11.2081 100.002 10.915 99.1666 10.6832 98.5075C10.4849 97.9163 10.3864 97.5853 10.4112 97.5758C10.436 97.5663 10.5804 97.8798 10.8217 98.455C11.0827 99.1032 11.4144 99.9234 11.8096 100.903C12.6283 102.977 13.7343 105.851 14.9343 109.033C15.8041 111.373 16.6133 113.55 17.3001 115.397L17.3111 115.425L17.3103 115.453C17.2833 117.06 17.2607 118.42 17.2433 119.465C17.2155 120.432 17.1842 120.98 17.1514 120.98Z" fill="#263238"/>
<path d="M82.1999 72.416C82.1999 72.416 82.1722 70.422 80.2963 71.5987C78.4204 72.7761 71.9573 79.2757 69.9626 82.8838L66.4062 88.6244L73.508 94.2834L75.5377 89.333C75.5377 89.333 81.1048 86.0763 81.8652 85.5543C82.6249 85.0323 83.865 82.2787 81.263 82.7249C81.263 82.7249 82.2983 79.9996 79.6919 80.1134C79.6919 80.1134 80.4049 78.0574 77.8933 77.6586L82.1999 72.416Z" fill="#FFBF9D"/>
<g opacity="0.3">
<path d="M9.60861 79.754L26.0161 76.3296C26.6059 77.6944 25.5495 81.4621 24.1118 81.842C24.9816 83.373 25.0093 85.3495 24.1818 86.9031C23.3543 88.4575 21.7001 89.5387 19.9445 89.6721C19.51 89.7049 19.0616 89.6859 18.6519 89.8332C17.7529 90.1569 17.3228 91.1441 16.7833 91.9322C16.0725 92.9711 14.9942 93.7891 13.7591 94.0297C12.5241 94.2703 11.1455 93.87 10.3464 92.8982C9.55175 91.9314 9.41906 90.5958 9.35709 89.3455C9.19815 86.1485 9.282 82.9392 9.60861 79.754Z" fill="black"/>
</g>
<path d="M15.4742 28.4056C13.9067 26.4896 11.3995 26.537 9.81961 27.0991C8.23974 27.6612 7.0521 29.193 6.90046 30.8632C4.71984 30.0044 1.96691 31.0725 0.934566 33.1765C-0.0970524 35.2813 0.74501 38.1115 2.7594 39.3094C2.44882 41.0074 3.41993 42.8555 4.99324 43.5642C6.56655 44.2728 8.59406 43.7734 9.65995 42.4159L16.3877 34.7768C16.9863 33.2094 17.5331 30.9216 15.4742 28.4056Z" fill="#263238"/>
<path d="M17.7575 34.6879C17.285 34.2512 16.5808 34.144 15.9472 34.2548C15.3137 34.3649 14.7311 34.6653 14.1603 34.9613C13.892 35.1005 13.6157 35.2456 13.4254 35.4804C13.2351 35.7151 13.152 36.0651 13.3102 36.3224C12.4805 35.8733 11.349 36.0862 10.7395 36.8073C10.1308 37.5283 10.1096 38.6795 10.6907 39.4224C11.1653 40.0282 11.9986 40.3024 12.7496 40.1587L11.8703 40.438C13.7272 40.4212 15.5703 39.7147 16.9628 38.487C17.511 38.0036 18.0039 37.4197 18.2124 36.7191C18.4216 36.0184 18.2948 35.1844 17.7575 34.6879Z" fill="#FF725E"/>
<path d="M37.0464 44.5018C37.0428 44.512 37.1222 44.544 37.2797 44.5951C37.4386 44.6352 37.6843 44.6804 37.9993 44.6446C38.6131 44.59 39.5646 44.1883 40.1369 43.1734C40.4263 42.6762 40.5451 42.0157 40.4329 41.35C40.3199 40.6822 39.9801 40.0159 39.4625 39.4661C38.95 38.9135 38.2348 38.4856 37.435 38.3018C36.6359 38.1094 35.7691 38.1305 34.9314 38.3266C34.4437 38.444 33.9771 38.6139 33.5557 38.8158L33.7729 38.9004C33.1787 37.4459 32.0181 36.3888 30.8144 35.8515C29.5998 35.2952 28.3553 35.2879 27.4031 35.4957C26.4393 35.7027 25.7394 36.1037 25.3071 36.4209C25.0891 36.5798 24.9316 36.7183 24.8339 36.8189C24.7348 36.9195 24.6867 36.975 24.6932 36.9822C24.7114 37.0027 24.9272 36.8022 25.3727 36.5171C25.816 36.2364 26.5108 35.8777 27.4447 35.7057C28.3691 35.5329 29.5509 35.5664 30.6956 36.1096C31.8314 36.6359 32.9228 37.6501 33.4762 39.0192L33.5396 39.1767L33.6935 39.1038C34.0959 38.9128 34.5413 38.7517 35.0043 38.6401C35.8004 38.4535 36.617 38.4331 37.3621 38.608C38.1101 38.7765 38.7633 39.1621 39.2481 39.6703C39.7337 40.1748 40.056 40.7879 40.1704 41.3967C40.2827 42.0084 40.1901 42.6018 39.9371 43.0655C39.4348 44.0162 38.5585 44.4325 37.9832 44.52C37.3847 44.6206 37.0537 44.4587 37.0464 44.5018Z" fill="#455A64"/>
<path d="M3.64933 54.3885C3.67485 54.3761 3.5305 54.0969 3.38031 53.5552C3.23377 53.0172 3.09597 52.1941 3.25564 51.196C3.40947 50.2096 3.89284 49.0351 4.90988 48.15C5.90212 47.2664 7.39232 46.67 8.95396 46.8326L9.19091 46.8574L9.12457 46.6277C8.99333 46.1757 8.90658 45.6821 8.88179 45.1769C8.79576 43.4301 9.43004 41.7649 10.4157 40.6232C11.3934 39.4559 12.7042 38.853 13.8131 38.5905C14.9388 38.3259 15.8939 38.3974 16.5289 38.5067C17.1675 38.6212 17.5073 38.7539 17.5182 38.7247C17.5219 38.7145 17.4402 38.6751 17.2798 38.6095C17.1202 38.5395 16.8752 38.4622 16.5544 38.3842C15.9143 38.2355 14.9352 38.1239 13.765 38.3689C12.6131 38.611 11.2337 39.2146 10.1919 40.4307C9.14571 41.6183 8.47205 43.3571 8.56173 45.1929C8.58798 45.7237 8.67984 46.2435 8.82055 46.7203L8.99042 46.5154C7.32233 46.347 5.75704 46.9922 4.72178 47.9378C3.65881 48.8878 3.17472 50.1381 3.04494 51.1654C2.90861 52.2065 3.08504 53.05 3.27022 53.5895C3.36208 53.8614 3.45467 54.0641 3.5283 54.1953C3.59829 54.3273 3.63985 54.3936 3.64933 54.3885Z" fill="#455A64"/>
<path d="M37.3195 42.5654C35.7645 40.5299 33.5088 39.0397 31.0256 38.4098L19.863 39.8132L18.913 39.7964C18.7038 39.0929 17.5176 38.7247 17.5176 38.7247C16.4685 37.9205 12.8348 37.8768 10.3028 40.524C9.38929 41.4791 8.74043 43.8806 8.71928 45.2017C8.71126 45.7018 9.24712 46.3878 8.82864 46.6627C8.6821 46.7589 7.47623 46.7334 7.30491 46.7713C4.46595 47.3925 2.69142 49.9099 3.20614 53.6741C3.23239 53.8636 3.29873 54.0532 3.26738 54.242C3.2178 54.5402 2.97722 54.7618 2.77016 54.9813C1.41849 56.4124 1.09041 58.7133 1.98788 60.4645C2.26492 61.0047 2.65059 61.51 2.74683 62.11C2.91889 63.1832 2.13515 64.1404 1.52712 65.0423C-0.294075 67.7464 -0.685583 71.6753 1.45275 74.1366C1.75968 74.4902 2.11692 74.8219 2.3998 75.1915C1.9682 76.5949 1.69771 78.0312 1.74 79.5002C1.83186 82.6819 3.77335 86.0319 6.88133 86.7187C6.10998 88.1979 6.83904 90.1883 8.27601 91.0354C9.71299 91.8826 11.6282 91.6639 13.0076 90.7263C14.387 89.7887 15.264 88.2344 15.649 86.6108C17.1815 87.361 19.1565 87.0854 20.4251 85.9451C21.6936 84.8042 22.1763 82.8685 21.5916 81.266C22.8251 81.7399 24.2993 80.962 24.8803 79.7751C25.4614 78.5882 25.285 77.1425 24.7287 75.9432C24.2023 74.8088 23.3726 73.85 22.5371 72.9168C23.2837 71.9771 23.4638 70.5569 23.2312 69.3284C22.9294 67.7325 21.6506 66.889 21.273 65.5679C21.1075 64.9876 21.5835 62.0429 20.9383 60.9253C20.4287 60.0417 19.5378 59.4096 19.104 58.4866C18.4683 57.1349 18.9567 55.5587 19.2294 54.0904C19.7441 51.3177 19.4146 48.3979 18.3152 45.8024C18.2678 45.416 18.2357 45.104 18.2372 44.9727C18.2641 43.2821 20.3631 44.1861 21.9663 44.7249C22.3541 44.8554 22.7595 44.9297 23.1685 44.9414C24.4874 44.9778 25.8084 44.3516 26.6162 43.3076C28.1298 44.921 30.575 45.5903 32.6988 44.9713C33.5605 46.1742 34.4368 47.3925 35.5844 48.3279C36.7312 49.2632 38.2017 49.8975 39.6722 49.7335C39.7181 47.1701 38.8746 44.6016 37.3195 42.5654Z" fill="#263238"/>
</svg>
