<svg width="230" height="279" viewBox="0 0 230 279" fill="none" xmlns="http://www.w3.org/2000/svg">
<path d="M33.6829 258.192C78.5934 285.391 151.407 285.392 196.317 258.192C241.228 230.993 241.228 186.894 196.317 159.695C151.407 132.496 78.5928 132.496 33.6824 159.695C-11.2275 186.894 -11.2275 230.993 33.6829 258.192Z" fill="white"/>
<path d="M63.8869 231.466C63.3961 225.847 58.3151 214.563 51.8467 207.777C45.3784 200.99 35.7451 196.456 29.4274 199.253C23.5438 201.857 24.8954 209.757 32.7154 214.387C40.5354 219.017 52.1756 224.673 56.2078 233.506L63.9752 244.095L63.8869 231.466Z" fill="#B3E9C7"/>
<path opacity="0.1" d="M63.8869 231.466C63.3961 225.847 58.3151 214.563 51.8467 207.777C45.3784 200.99 35.7451 196.456 29.4274 199.253C23.5438 201.857 24.8954 209.757 32.7154 214.387C40.5354 219.017 52.1756 224.673 56.2078 233.506L63.9752 244.095L63.8869 231.466Z" fill="#B3E9C7"/>
<path d="M64.9737 239.118C64.7931 239.119 64.6271 239 64.5752 238.82C59.137 219.967 42.2579 205.732 32.6692 203.099C32.4497 203.039 32.321 202.811 32.3809 202.592C32.4408 202.374 32.6627 202.24 32.8879 202.304C42.6588 204.987 59.8465 219.453 65.3673 238.592C65.4305 238.81 65.3041 239.038 65.0863 239.101C65.0474 239.112 65.0101 239.118 64.9737 239.118Z" fill="white"/>
<path d="M63.1856 251.647C62.0072 248.567 57.6931 243.691 51.0774 239.931C43.7587 235.771 34.8316 234.345 32.4935 230.813C29.6849 226.571 33.0718 222.035 40.239 222.295C47.4063 222.555 60.7187 231.14 63.9841 245.531L63.1856 251.647Z" fill="#C2F8CB"/>
<path d="M64.2684 248.212C64.1113 248.213 63.9614 248.124 63.891 247.972C56.5731 232.053 43.5319 227.381 37.6588 227.134C37.4313 227.125 37.2547 226.932 37.2644 226.705C37.2733 226.476 37.4572 226.3 37.6936 226.31C44.1879 226.582 57.1708 231.378 64.6401 247.627C64.7348 247.833 64.6441 248.078 64.4376 248.173C64.3826 248.199 64.3251 248.211 64.2684 248.212Z" fill="white"/>
<path d="M68.2644 257.853L66.0608 256.581C64.271 255.548 62.8197 253.034 62.8197 250.966V57.8199C62.8197 55.7531 64.271 53.2393 66.0608 52.206L155.14 0.775035C156.93 -0.258345 159.833 -0.258345 161.623 0.775035L163.829 2.04813C165.62 3.08151 167.071 5.59531 167.071 7.66208V200.809C167.071 202.875 165.62 205.389 163.83 206.423L74.7481 257.853C72.9567 258.888 70.0542 258.888 68.2644 257.853Z" fill="#37474F"/>
<path d="M75.8494 61.6011L63.7679 54.6257C63.1815 55.6421 62.8187 56.7864 62.8187 57.8198V250.966C62.8187 253.033 64.27 255.547 66.0598 256.581L68.2634 257.853C70.054 258.887 72.9557 258.887 74.7463 257.853L75.8494 257.217V61.6011Z" fill="#263238"/>
<path d="M71.5052 62.836V255.983C71.5052 258.049 72.9565 258.888 74.7471 257.854L163.829 206.423C165.619 205.39 167.07 202.876 167.07 200.809V7.66274C167.07 5.59598 165.619 4.75778 163.828 5.79116L74.7463 57.2221C72.9565 58.2555 71.5052 60.7693 71.5052 62.836Z" fill="#455A64"/>
<path d="M78.6271 75.0449L159.628 28.2828C161.163 27.3968 162.407 28.1151 162.407 29.8871V183.977C162.407 185.749 161.163 187.903 159.628 188.789L78.6279 235.551C77.0933 236.437 75.8493 235.718 75.8493 233.947L75.8485 79.8579C75.8493 78.0851 77.0925 75.9308 78.6271 75.0449Z" fill="#8367C7"/>
<g opacity="0.4">
<path d="M119.577 87.1902C128.658 81.9464 136.02 86.1973 136.02 96.6826C136.02 107.169 128.658 119.92 119.577 125.163C110.496 130.405 103.134 126.156 103.134 115.669C103.134 105.183 110.496 92.4324 119.577 87.1902Z" fill="#F0FFF1"/>
<path d="M151.982 143.27C151.982 126.042 139.886 118.394 124.969 127.008L115.641 132.392C100.724 141.006 88.6281 161.954 88.6281 179.181V183.818L151.982 147.265V143.27Z" fill="#F0FFF1"/>
</g>
<path d="M119.287 36.5222C120.486 35.8297 121.459 36.391 121.459 37.7766C121.459 39.1615 120.486 40.846 119.287 41.5384C118.088 42.2309 117.115 41.6696 117.115 40.2848C117.115 38.8991 118.088 37.2146 119.287 36.5222Z" fill="#263238"/>
<path d="M113.015 47.371C117.428 44.9317 125.301 40.2459 129.651 37.6867C130.39 37.2526 130.989 37.5515 130.989 38.3557C130.989 39.1599 130.387 40.1584 129.645 40.5868L112.981 50.2112C112.239 50.6396 111.637 50.3351 111.637 49.5309C111.637 48.7283 112.265 47.7857 113.015 47.371Z" fill="#263238"/>
<path d="M108.805 49.8047C109.479 49.416 110.024 49.731 110.024 50.5085C110.024 51.2859 109.479 52.2318 108.805 52.6206C108.131 53.0093 107.585 52.6943 107.585 51.916C107.585 51.1385 108.132 50.1934 108.805 49.8047Z" fill="#263238"/>
<path d="M119.287 217.091C121.686 215.706 123.631 216.829 123.631 219.599C123.631 222.37 121.687 225.738 119.287 227.123C116.888 228.508 114.943 227.385 114.943 224.615C114.943 221.845 116.888 218.477 119.287 217.091Z" fill="#263238"/>
<path d="M193.155 162.986L183.386 157.347C183.386 157.347 183.377 157.347 183.366 157.347L183.265 157.287L183.254 157.307C178.397 154.564 171.737 154.969 164.36 159.229C157.458 163.207 151.163 169.846 146.416 177.527C140.931 186.373 137.48 196.614 137.48 205.793C137.48 214.355 140.476 220.367 145.324 223.18V223.19L145.355 223.2L155.273 228.865C160.171 231.988 167.086 231.711 174.757 227.282C189.606 218.709 201.644 197.861 201.645 180.714C201.645 171.789 198.379 165.635 193.155 162.986Z" fill="#B3E9C7"/>
<path opacity="0.1" d="M155.079 228.755L145.352 223.197L145.321 223.186V223.176C140.473 220.367 137.481 214.352 137.481 205.791C137.481 196.611 140.929 186.377 146.417 177.531L156.794 183.516C151.306 192.36 147.868 202.584 147.868 211.755C147.868 219.941 150.606 225.793 155.079 228.755Z" fill="black"/>
<path opacity="0.4" d="M192.954 162.875C188.166 160.553 181.776 161.141 174.757 165.188C167.85 169.185 161.551 175.828 156.794 183.517L146.417 177.533C151.164 169.844 157.463 163.211 164.36 159.234C171.734 154.974 178.398 154.569 183.257 157.307L183.266 157.287L183.368 157.347C183.378 157.347 183.388 157.347 183.388 157.347L192.954 162.875Z" fill="white"/>
<path d="M188.758 173.799L185.035 171.651L170.448 206.026L172.936 207.462L188.758 173.799Z" fill="white"/>
<path d="M167.59 198.352L163.867 196.203L159.869 204.666L163.592 206.815L167.59 198.352Z" fill="white"/>
<path d="M173.895 217.543L163.592 206.815L167.589 198.352L172.936 207.462L188.758 173.8L194.622 179.522L173.895 217.543Z" fill="#F5F5F5"/>
<path d="M159.869 204.667L163.592 206.815L173.895 217.543L170.175 215.416L159.869 204.667Z" fill="#E0E0E0"/>
</svg>
