<svg width="270" height="248" viewBox="0 0 270 248" fill="none" xmlns="http://www.w3.org/2000/svg">
<path d="M39.5403 225.12C-13.1801 194.682 -13.1801 145.332 39.5403 114.894C92.2608 84.4555 177.738 84.4555 230.459 114.894C283.18 145.332 283.18 194.682 230.459 225.12C177.738 255.559 92.2608 255.559 39.5403 225.12Z" fill="#8367C7"/>
<path d="M81.7308 226.587C104.606 226.587 123.151 215.881 123.151 202.673C123.151 189.466 104.606 178.76 81.7308 178.76C58.8553 178.76 40.311 189.466 40.311 202.673C40.311 215.881 58.8553 226.587 81.7308 226.587Z" fill="#252627" fill-opacity="0.3"/>
<path d="M177.475 191.511C206.199 176.019 223.236 151.873 215.527 137.58C207.819 123.286 178.284 124.257 149.559 139.748C120.834 155.24 103.798 179.386 111.506 193.679C119.215 207.973 148.75 207.002 177.475 191.511Z" fill="#252627" fill-opacity="0.3"/>
<path d="M206.049 157.547C211.793 150.7 220.79 146.238 230.907 143.606C240.896 141.007 242.687 134.862 236.065 132.868C228.559 130.607 219.195 134.761 213.156 140.539C202.631 150.608 201.312 158.316 201.312 158.316L206.049 157.547Z" fill="#B3E9C7"/>
<path opacity="0.15" d="M206.049 157.547C211.793 150.7 220.79 146.238 230.907 143.606C240.896 141.007 242.687 134.862 236.065 132.868C228.559 130.607 219.195 134.761 213.156 140.539C202.631 150.608 201.312 158.316 201.312 158.316L206.049 157.547Z" fill="#B3E9C7"/>
<path d="M203.092 157.147C203.048 157.147 203.005 157.137 202.964 157.117C202.819 157.047 202.759 156.872 202.83 156.728C211.354 139.237 230.219 134.933 234.805 135.258C234.966 135.269 235.086 135.41 235.075 135.57C235.062 135.731 234.914 135.851 234.762 135.84C230.284 135.496 211.747 139.762 203.354 156.983C203.303 157.087 203.199 157.147 203.092 157.147Z" fill="white"/>
<path d="M201.312 159.367C201.312 160.604 202.652 161.353 203.72 160.731C209.061 157.621 216.852 155.903 229.46 159.49C236.164 161.398 239.463 160.122 240.877 157.392C242.447 154.36 239.12 151.43 235.334 150.047C222.431 145.332 210.786 148.551 201.311 157.958L201.312 159.367Z" fill="#B3E9C7"/>
<path d="M201.164 159.383C201.164 160.62 202.504 161.369 203.572 160.747C208.913 157.637 216.705 155.919 229.312 159.507C236.016 161.414 239.315 160.138 240.729 157.408C242.299 154.376 238.972 151.446 235.186 150.063C222.283 145.348 210.638 148.567 201.163 157.974L201.164 159.383Z" fill="#252627" fill-opacity="0.2"/>
<path d="M202.046 159.617C201.965 159.617 201.886 159.584 201.828 159.52C201.721 159.4 201.732 159.216 201.852 159.108C212.992 149.151 230.253 151.089 236.785 154.973C236.923 155.055 236.968 155.234 236.886 155.373C236.803 155.511 236.625 155.556 236.486 155.474C230.086 151.67 213.168 149.775 202.24 159.543C202.185 159.593 202.115 159.617 202.046 159.617Z" fill="white"/>
<path d="M76.643 182.586C71.7462 175.109 63.3388 169.616 53.6025 165.809C43.9904 162.05 42.9374 155.736 49.7478 154.537C57.4677 153.177 66.2775 158.408 71.5923 164.858C80.8551 176.098 81.2557 183.908 81.2557 183.908L76.643 182.586Z" fill="#B3E9C7"/>
<path opacity="0.15" d="M76.643 182.586C71.7462 175.109 63.3388 169.616 53.6025 165.809C43.9904 162.05 42.9374 155.736 49.7478 154.537C57.4677 153.177 66.2775 158.408 71.5923 164.858C80.8551 176.098 81.2557 183.908 81.2557 183.908L76.643 182.586Z" fill="black"/>
<path d="M79.627 182.537C79.6701 182.542 79.7139 182.538 79.757 182.523C79.9098 182.47 79.9897 182.304 79.9366 182.152C73.5349 163.777 55.3096 157.278 50.7172 157.059C50.5563 157.052 50.4204 157.177 50.4129 157.338C50.4059 157.499 50.5394 157.635 50.6916 157.642C55.179 157.829 73.0831 164.252 79.3862 182.344C79.4241 182.453 79.5203 182.525 79.627 182.537Z" fill="white"/>
<path d="M81.2988 183.552C81.0842 185.355 79.0446 186.291 77.5362 185.28C72.594 181.968 65.2291 179.82 53.1657 181.754C46.2842 182.857 43.1583 181.201 42.0761 178.323C40.8744 175.126 44.5239 172.61 48.4463 171.683C61.8157 168.523 73.0004 173.093 81.2988 183.552Z" fill="#B3E9C7"/>
<path d="M80.3739 185.113C80.4538 185.123 80.5366 185.099 80.6013 185.042C80.722 184.935 80.7331 184.752 80.6264 184.631C70.7391 173.428 53.3703 173.317 46.4252 176.403C46.2782 176.469 46.2118 176.641 46.2771 176.788C46.343 176.935 46.515 177.001 46.6619 176.936C53.4659 173.913 70.4895 174.028 80.1891 185.017C80.2392 185.073 80.3051 185.105 80.3739 185.113Z" fill="white"/>
<path d="M211.28 49.361L211.281 49.3569L211.189 49.3097C211.186 49.3079 211.183 49.3062 211.179 49.3044L188.953 36.5093C188.946 36.5058 188.939 36.5023 188.932 36.4982L188.802 36.4317L188.8 36.4376C178.417 31.1998 164.562 32.7706 149.66 42.406C119.723 61.7643 96.9107 106.322 98.7071 141.928C99.6027 159.676 106.445 171.845 116.789 177.195L116.787 177.199L116.878 177.246C116.882 177.248 116.886 177.25 116.89 177.252L139.121 190.05C139.125 190.051 139.127 190.053 139.131 190.054L139.24 190.11L139.242 190.106C149.628 195.36 163.494 193.794 178.409 184.15C208.345 164.791 231.158 120.234 229.362 84.6281C228.466 66.8802 221.623 54.7102 211.28 49.361Z" fill="#B3E9C7"/>
<path d="M138.365 189.645L116.897 177.249C116.881 177.251 116.881 177.251 116.881 177.251L116.781 177.19C106.443 171.827 99.6034 159.657 98.7095 141.934C97.9078 126.055 102.011 108.405 109.435 92.0128L109.585 91.6536L131.67 104.806C124.229 121.199 120.142 138.849 120.944 154.728C121.819 172.095 128.391 184.116 138.365 189.645Z" fill="#B3E9C7"/>
<path d="M178.409 184.149C208.346 164.79 231.158 120.233 229.362 84.6275C227.565 49.0222 201.84 35.851 171.903 55.2099C141.966 74.5682 119.153 119.126 120.95 154.731C122.747 190.337 148.472 203.507 178.409 184.149Z" fill="#C2F8CB"/>
<path d="M203.761 46.5989L166.242 123.881L158.166 115.128C155.674 112.421 152.123 110.869 148.423 110.869C145.075 110.869 141.874 112.117 139.407 114.385C134.038 119.346 133.703 127.76 138.662 133.139L159.936 156.185C162.291 158.736 165.5 160.244 168.97 160.432C169.214 160.444 169.459 160.451 169.705 160.451C170.34 160.451 170.983 160.405 171.628 160.314C175.981 159.667 179.72 156.924 181.628 152.98L224.659 64.3462C220.266 54.5195 212.915 48.4082 203.761 46.5989Z" fill="#252627" fill-opacity="0.5"/>
<path d="M234.232 21.1404C233.998 21.0058 233.758 20.8781 233.511 20.7585C227.782 17.9889 220.871 20.3778 218.106 26.0891L170.36 124.432L167.648 121.493C166.84 120.616 165.925 119.895 164.941 119.331C163.517 118.515 157.465 115.01 156.486 114.445C152.243 111.996 146.706 112.457 142.895 115.961C138.234 120.268 137.943 127.573 142.248 132.244L163.523 155.29C164.332 156.167 165.258 156.899 166.269 157.475C167.658 158.265 173.689 161.761 174.676 162.334C176.231 163.236 177.989 163.766 179.833 163.865C180.593 163.906 181.357 163.875 182.14 163.764C185.918 163.202 189.168 160.82 190.824 157.397L247.308 41.0538C249.96 35.5787 247.891 29.0202 242.708 26.0348C242.472 25.8978 235.741 22.0087 234.232 21.1404Z" fill="white"/>
<path opacity="0.15" d="M234.232 21.1404C233.998 21.0058 233.758 20.8781 233.511 20.7585C227.782 17.9889 220.871 20.3778 218.106 26.0891L170.36 124.432L167.648 121.493C166.84 120.616 165.925 119.895 164.941 119.331C163.517 118.515 157.465 115.01 156.486 114.445C152.243 111.996 146.706 112.457 142.895 115.961C138.234 120.268 137.943 127.573 142.248 132.244L163.523 155.29C164.332 156.167 165.258 156.899 166.269 157.475C167.658 158.265 173.689 161.761 174.676 162.334C176.231 163.236 177.989 163.766 179.833 163.865C180.593 163.906 181.357 163.875 182.14 163.764C185.918 163.202 189.168 160.82 190.824 157.397L247.308 41.0538C249.96 35.5787 247.891 29.0202 242.708 26.0348C242.472 25.8978 235.741 22.0087 234.232 21.1404Z" fill="#505050"/>
<path opacity="0.15" d="M174.674 162.332C173.691 161.762 167.659 158.265 166.268 157.472C165.259 156.897 164.33 156.164 163.521 155.289L142.247 132.245C141.28 131.191 140.553 129.997 140.048 128.742L148.508 133.624C149.007 134.883 149.746 136.078 150.718 137.132L171.992 160.176C172.784 161.034 173.686 161.757 174.674 162.332Z" fill="#B3E9C7"/>
<path opacity="0.15" d="M229.245 27.4313C228.159 28.3981 227.246 29.5922 226.573 30.977L177.465 132.131L170.363 124.432L218.108 26.0902C218.776 24.7002 219.699 23.5113 220.785 22.5445L229.245 27.4313Z" fill="#252627" fill-opacity="0.5"/>
<path d="M241.979 25.6483C236.25 22.8786 229.339 25.2675 226.574 30.9782L177.465 132.131L167.649 121.493C163.359 116.834 156.054 116.538 151.364 120.85C146.702 125.157 146.412 132.462 150.717 137.133L171.991 160.179C174.035 162.392 176.82 163.702 179.834 163.865C180.594 163.906 181.357 163.875 182.141 163.764C185.919 163.202 189.168 160.82 190.824 157.397L247.309 41.0538C250.081 35.3286 247.692 28.4185 241.979 25.6483Z" fill="white"/>
<path d="M80.906 37.009C76.4588 37.009 73.4128 38.167 70.2536 42.6666C67.3563 46.7936 59.385 60.5538 59.385 60.5538C59.385 60.5538 53.5723 48.5924 52.9682 46.2059C52.3641 43.8199 52.4178 42.7605 52.9921 41.7243C53.6994 40.448 54.3303 39.3296 54.4644 37.6218C54.6895 34.7571 55.3932 32.3023 54.7495 32.2207C52.9688 32.1187 52.9017 34.402 51.9671 35.753C51.6335 36.2346 50.5432 36.3052 50.1752 35.5565C49.7822 34.7577 49.9939 33.4475 49.8032 32.5029C49.8884 31.686 49.9624 31.4219 50.0551 30.9432C50.5566 31.0598 51.286 31.0738 52.0959 31.0003C52.8644 32.2084 53.3921 32.7163 54.4644 32.2259C54.6061 31.9997 54.0038 30.451 53.3064 29.3344C53.1962 29.1578 53.0283 29.0237 52.8277 28.9683C51.7501 28.6709 50.5286 28.598 48.8732 28.8598C48.6779 28.8907 48.4767 28.9776 48.3665 29.1414C47.749 30.0569 47.3794 30.984 47.2289 31.4551C47.1496 31.7035 46.9199 31.6971 46.8622 31.4819C46.2937 28.6662 46.2855 24.668 46.2855 22.7929C46.2855 21.32 44.1299 21.0885 44.0546 23.1987C43.9777 25.3602 43.9217 29.3613 44.2004 31.6959C44.2336 31.9501 43.9462 32.072 43.8418 31.7933C43.4663 30.7927 42.5515 27.7805 42.1678 22.58C42.0646 21.183 39.8022 20.9521 39.8191 22.9182C39.8652 28.3059 41.1142 33.2732 41.1142 33.2732C41.18 33.5198 40.9567 33.7355 40.7859 33.4562C40.0337 32.2259 38.8506 29.17 38.2518 27.0674C37.7719 25.3806 35.5166 25.8085 35.9107 27.9123C36.618 31.6854 37.7381 36.4597 39.4063 39.8678C41.1905 43.5132 42.7345 45.3365 43.6185 48.2C44.5024 51.0641 48.1735 67.2802 52.0965 73.6008C55.1699 78.5529 58.6865 78.0975 62.4683 75.4853C66.2502 72.8731 79.773 54.0314 79.773 54.0314L80.906 37.009Z" fill="#9E6767"/>
<path d="M59.3853 60.5532C59.3853 60.5532 61.282 63.7695 61.5701 66.3379C61.5701 66.3379 62.4861 62.6599 60.2331 59.0961L59.3853 60.5532Z" fill="#874C4C"/>
<path d="M81.8506 37.0235C79.5882 36.7909 76.776 36.7127 73.6338 38.6876C70.4916 40.6625 69.4018 43.4199 67.8811 45.8263C66.3605 48.2332 61.0981 56.7661 61.0981 56.7661C61.0981 56.7661 63.0276 64.8656 70.7044 66.5344L82.1969 50.9405L81.8506 37.0235Z" fill="#455A64"/>
<path d="M92.1571 179.421C92.718 179.35 93.5121 181.335 93.5238 181.983C93.5349 182.632 92.8853 184.025 92.0247 185.33C91.1646 186.635 89.9728 188.25 89.1997 190.359C88.5408 192.156 87.9326 193.334 86.0983 195.686C84.0546 198.306 79.2651 202.687 71.9854 200.779C70.2087 200.314 69.3201 199.753 68.677 199.107C68.1341 198.562 67.8764 197.678 68.1679 196.88L92.1571 179.421Z" fill="#263238"/>
<path d="M77.8602 177.15C77.8544 177.17 77.8491 177.191 77.8445 177.211C77.7185 177.747 77.8252 178.305 77.8929 178.85C78.1308 180.764 77.876 182.737 77.1588 184.528C76.6766 185.731 75.9868 186.85 75.1332 187.825C74.2638 188.818 72.8411 189.867 71.7315 190.576C68.0435 192.93 67.6476 194.502 68.1671 196.88C69.4003 199.65 77.7594 201.335 82.5645 197.209C84.442 195.597 85.8671 194.181 87.1382 190.99C88.0321 188.747 88.7009 187.476 89.5621 185.86C90.4933 184.113 92.2553 182.138 92.3067 180.336C92.3346 179.346 91.3545 177.504 90.4017 175.986C89.5277 174.594 88.6274 173.27 87.8408 173.425L88.0577 174.212C87.4029 174.893 86.4513 175.147 85.877 175.946C85.1686 176.932 85.1942 178.257 84.7534 179.388C84.7108 179.497 84.6514 179.616 84.5394 179.65C84.4205 179.686 84.291 179.603 84.2327 179.494C84.1744 179.384 84.1692 179.255 84.1651 179.13C84.1482 178.564 84.1307 177.999 84.1138 177.433C84.1039 177.109 84.0835 176.757 83.8683 176.514C83.4135 176 82.2916 176.06 81.6689 176.035C80.8147 176 80.0025 176.133 79.157 176.186C78.8427 176.206 78.6072 176.186 78.3395 176.402C78.1075 176.589 77.9407 176.862 77.8602 177.15Z" fill="#37474F"/>
<path d="M65.507 143.25C67.4498 149.634 76.5267 171.736 77.0718 173.066C77.6176 174.396 78.8777 177.453 78.8777 177.453C78.8777 177.453 80.3604 178.064 82.5645 177.607C82.7551 179.724 83.0747 183.043 83.2006 184.718C83.2426 186.66 83.4117 189.058 82.9942 190.977C82.6379 192.612 82.2263 194.325 81.9178 195.963C81.7814 196.688 81.645 197.413 81.5359 198.143C81.4199 198.915 81.3452 199.749 81.7184 200.434C81.8933 200.755 82.1563 201.02 82.4385 201.252C83.6962 202.287 85.3889 202.726 87.0128 202.595C87.8717 202.525 88.7364 202.294 89.4367 201.792C90.8471 200.781 91.3439 199.026 92.0617 197.534C92.8413 195.915 92.5882 195.738 92.6547 194.004C92.7013 192.792 93.0372 189.712 93.5223 186.495C94.0074 183.277 96.0955 171.965 97.0972 160.692C97.7905 152.888 97.0966 145.65 97.0966 145.65C105.062 124.01 108.608 111.145 109.65 103.958C110.707 96.657 110.201 94.0594 110.067 89.8571L71.3337 90.7894C68.2201 110.81 62.9006 134.688 65.507 143.25Z" fill="#9E6767"/>
<path d="M64.9024 127.27C65.7001 119.912 71.2038 91.6262 71.2038 91.6262H110.227C110.227 91.6262 110.473 97.0564 110.403 99.5497C110.332 102.043 109.531 106.604 108.134 112.367C106.737 118.13 101.577 134.458 100.58 136.868C99.5824 139.278 97.6506 146.239 97.6506 146.239C98.608 159.325 96.1195 171.068 94.253 186.675C94.253 186.675 93.7131 188.783 88.1825 188.365C82.8083 187.959 81.7238 185.979 81.7238 185.979L81.364 172.512C81.364 172.512 78.4253 173.413 76.6999 173C76.6999 173 65.1497 144.487 64.5911 142.769C64.0342 141.05 64.1042 134.628 64.9024 127.27Z" fill="#27DEBF"/>
<path opacity="0.45" d="M64.9024 127.27C65.7001 119.912 71.2038 91.6262 71.2038 91.6262H110.227C110.227 91.6262 110.473 97.0564 110.403 99.5497C110.332 102.043 109.531 106.604 108.134 112.367C106.737 118.13 101.577 134.458 100.58 136.868C99.5824 139.278 97.6506 146.239 97.6506 146.239C98.608 159.325 96.1195 171.068 94.253 186.675C94.253 186.675 93.7131 188.783 88.1825 188.365C82.8083 187.959 81.7238 185.979 81.7238 185.979L81.364 172.512C81.364 172.512 78.4253 173.413 76.6999 173C76.6999 173 65.1497 144.487 64.5911 142.769C64.0342 141.05 64.1042 134.628 64.9024 127.27Z" fill="black"/>
<path opacity="0.2" d="M81.4531 110.066C75.9278 105.083 74.6992 101.119 74.6992 101.119C78.8175 105.98 84.4291 108.916 84.4291 108.916C84.4291 108.916 79.1825 136.625 79.5645 142.322C79.9458 148.019 81.3662 172.512 81.3662 172.512C81.3767 172.747 77.6461 146.609 77.54 144.52C77.2607 139.017 81.4531 110.066 81.4531 110.066Z" fill="black"/>
<path d="M93.6154 200.55C94.1594 200.705 94.0912 202.328 93.8457 202.93C93.6002 203.531 92.6311 204.682 91.3244 205.544C90.0178 206.406 88.802 207.614 87.6242 209.53C86.7869 210.891 84.6762 213.482 81.822 215.193C78.9684 216.904 74.7504 217.502 71.6169 216.611C67.9563 215.572 67.6152 214.675 67.6496 213.294L93.6154 200.55Z" fill="#263238"/>
<path d="M82.2886 192.071C81.3289 196.758 79.6549 200.16 75.7733 203.045C72.687 205.338 70.4445 206.504 67.9822 208.554C66.9332 209.427 66.8451 211.288 67.6492 213.294C69.3133 214.631 71.6806 215.396 74.8608 215.391C78.4146 215.386 79.782 214.759 81.8216 213.362C82.9959 212.558 83.8081 211.824 84.607 211.023C86.3142 209.309 87.5043 207.195 88.7369 205.837C89.9696 204.478 92.6348 203.091 93.3928 201.452C93.8092 200.551 93.6325 198.469 93.3538 196.697C93.0978 195.071 93.5963 192.214 92.8115 192.047C92.8284 192.051 92.7048 193.211 92.7048 193.211C92.6407 193.475 92.4762 193.609 91.9264 193.799C91.559 193.926 90.8086 193.907 90.4255 193.844C89.9771 193.769 89.7206 193.776 89.4221 194.128C88.8955 194.748 88.7556 195.62 88.081 196.133C88.0337 196.169 87.983 196.203 87.9247 196.216C87.867 196.229 87.7999 196.215 87.762 196.17C87.72 196.118 87.7253 196.044 87.7323 195.978C87.797 195.398 87.8623 194.816 87.927 194.235C87.9469 194.06 87.9661 193.882 87.9416 193.707C87.8955 193.383 87.6501 193.106 87.3783 192.941C86.9031 192.651 86.3463 192.439 85.8116 192.29C85.2443 192.131 84.66 192.047 84.074 191.994C83.4851 191.939 82.8706 191.928 82.2886 192.071Z" fill="#455A64"/>
<path d="M106.701 38.6877C106.701 38.6877 108.308 40.8958 109.595 45.438C109.595 45.438 112.045 55.8233 112.045 68.1309C112.045 78.4305 110.655 95.1258 110.655 95.1258C98.6983 101.119 79.4094 97.5748 70.9209 91.73C71.2643 89.874 71.5559 80.1261 72.2229 73.6953C72.6754 62.6616 73.0474 56.8804 73.1255 51.9726C73.2812 42.1646 78.1628 37.0994 81.8502 37.0241L91.2139 37.1705L106.701 38.6877Z" fill="#B3E9C7"/>
<path d="M109.651 92.0973C107.874 93.5608 104.382 96.373 103.744 97.7893C103.013 99.4115 102.558 101.853 102.083 102.796C101.607 103.739 102.336 104.179 103.361 103.85C104.385 103.521 105.002 102.645 105.793 100.524C106.583 98.4027 108.789 96.7421 108.789 96.7421L109.651 92.0973Z" fill="#874C4C"/>
<path d="M103.159 111.186C103.583 112.007 104.577 112.01 105.498 112.085C106.808 112.191 107.548 112.099 108.804 111.709C110.059 111.319 111.23 110.575 111.982 109.496C112.88 108.207 113.109 106.584 113.622 105.098C114.698 101.976 117.894 99.7287 118.415 96.422C118.63 95.0547 118.632 93.4477 119.02 92.5993C119.248 92.1002 124.501 83.0554 126.374 79.1377C128.175 75.3722 129.521 73.6002 127.889 69.0726C126.257 64.545 120.697 48.6233 116.764 43.0911C114.533 39.9523 110.992 39.0585 106.701 38.6865C103.436 47.193 107.236 55.9772 107.236 55.9772L115.873 72.6399C115.873 72.6399 112.515 84.1143 110.416 90.4956C109.833 92.2681 108.655 93.3632 107.331 95.3281C106.756 96.1812 105.433 97.675 104.963 98.5905C104.358 99.7689 104.373 100.524 104.089 102.174C103.637 104.806 102.956 110.795 103.159 111.186Z" fill="#9E6767"/>
<path d="M106.24 38.6422C108.495 38.7325 111.737 39.1139 113.677 40.0929C115.616 41.0719 116.956 42.2817 119.188 46.7464C121.42 51.2116 124.67 59.8885 124.67 59.8885C124.67 59.8885 123.591 66.4353 113.238 68.1344L106.24 55.232C106.24 55.232 103.122 47.1936 106.24 38.6422Z" fill="#455A64"/>
<path d="M79.3416 17.8017C79.6792 18.2938 79.8669 18.9661 80.1334 19.5037C80.5083 20.2605 80.8838 21.0273 81.4418 21.6698C82.7835 23.2156 84.6709 24.3485 86.3864 25.4424C87.4283 26.1071 88.6172 26.7322 89.8901 26.5496C91.1822 26.3642 92.5793 26.6447 93.8953 26.7625C95.4247 26.8995 96.9535 27.0365 98.483 27.1735L98.2241 31.998C98.2241 31.998 98.7926 30.7187 99.5698 29.1933C100.238 27.882 103.024 21.2249 103.034 21.1999C104.415 17.9014 106.056 13.5067 104.403 10.0414C104.013 9.22397 103.435 8.46188 102.609 7.98434C102.775 7.3482 102.827 6.90564 102.76 6.3418C102.538 4.4771 101.59 3.41065 100.324 2.47947C99.059 1.54829 97.5279 1.04917 95.9967 0.696989C93.9454 0.225276 91.8393 -0.00795609 89.735 0.00020705C87.6411 0.00837019 85.6464 0.359387 83.5916 0.705737C82.4599 0.896405 81.3176 1.05034 80.1684 1.06317C79.6862 1.06841 79.1509 1.10048 78.6862 0.992611C78.0839 0.852672 77.4804 0.55705 76.8985 0.347141C76.7947 0.309824 76.6775 0.273091 76.5789 0.321486C76.4786 0.370465 76.4355 0.488831 76.4063 0.596701C76.0378 1.94537 76.5014 3.69869 77.3591 4.80246C77.0087 4.75815 76.7375 4.6392 76.6005 4.58206C76.3171 4.4637 76.0716 4.30101 75.8128 4.1395C75.3475 3.84913 75.0623 3.51152 74.7061 3.08354C74.6565 3.02407 74.6005 2.96051 74.5242 2.9471C74.4087 2.92669 74.3102 3.02757 74.2408 3.12203C73.5761 4.02988 73.4099 5.24153 73.6344 6.34472C73.8589 7.44732 74.4413 8.45081 75.1515 9.32426C74.3895 10.4566 74.3778 11.9959 74.9451 13.2373C75.197 13.7883 75.5533 14.2863 75.9754 14.7195C76.4985 15.2559 77.1189 15.6944 77.6693 16.1935C78.2308 16.7037 78.9078 17.1696 79.3416 17.8017Z" fill="#37474F"/>
<path d="M93.3157 9.76799C93.3285 11.0537 93.5099 11.9516 93.6457 12.3475C93.9169 13.1382 94.3699 13.6601 94.9478 14.2647C95.5402 14.8845 96.2748 15.3784 96.7536 16.0898C97.4066 17.0606 97.6311 18.3119 97.7687 19.4477C97.8521 20.1387 98.0643 20.8914 98.6556 21.2576C99.9028 22.029 100.65 20.5328 101.316 19.7987C102.174 19.0052 104.718 18.0384 105.895 20.7422C107.114 23.5433 104.867 27.2523 102.819 27.8225C99.29 28.8056 98.5238 26.4045 98.5238 26.4045L97.8474 38.999C95.8545 42.7733 91.1781 43.971 88.1059 43.3704C85.4534 42.852 83.9957 40.9937 86.4902 38.2964L86.6249 34.4609C86.6249 34.4609 83.4436 34.8387 81.9066 34.5495C79.3498 34.0685 78.0821 31.8965 77.3929 29.0896C76.2862 24.5818 75.7801 19.8436 77.1486 9.69452C77.7772 9.34817 80.299 11.3137 84.1176 11.5773C87.9117 11.8397 91.412 10.8205 93.3157 9.76799Z" fill="#9E6767"/>
<path d="M86.6252 34.4615C86.6252 34.4615 92.3983 33.4924 94.4385 32.4912C95.8041 31.8213 96.9493 30.6207 97.2997 29.8388C97.2997 29.8388 96.8688 31.5286 95.6199 33.0224C94.0922 34.8498 86.5757 35.9874 86.5757 35.9874L86.6252 34.4615Z" fill="#874C4C"/>
<path d="M89.6064 14.253L92.2939 15.0752C92.5032 14.309 92.0711 13.5038 91.3295 13.2764C90.5872 13.049 89.8158 13.4863 89.6064 14.253Z" fill="#263238"/>
<path d="M88.672 27.0103L84.7158 28.3502C85.0663 29.4831 86.2359 30.1012 87.3286 29.7315C88.4213 29.3618 89.0225 28.1432 88.672 27.0103Z" fill="#874C4C"/>
<path d="M88.3531 27.9788C87.2604 27.9788 86.3496 28.7339 86.0972 29.7484C86.4861 29.8685 86.9129 29.8726 87.3292 29.7321C88.0966 29.472 88.6132 28.791 88.7362 28.0178C88.6108 27.9968 88.4843 27.9788 88.3531 27.9788Z" fill="#F28F8F"/>
<path d="M77.6095 14.7043L80.3389 14.3446C80.2579 13.6023 79.5809 13.081 78.827 13.1802C78.0737 13.2793 77.5285 13.9615 77.6095 14.7043Z" fill="#263238"/>
<path d="M94.418 15.8693L103.435 18.9597C103.435 18.9597 102.023 18.8454 100.837 20.2786L94.45 17.8524L94.418 15.8693Z" fill="#263238"/>
<path d="M78.9513 19.3871C78.9315 20.0051 79.3973 20.5206 79.9927 20.5381C80.5874 20.5555 81.0865 20.0693 81.1064 19.4506C81.1268 18.8325 80.6603 18.3171 80.0656 18.299C79.4702 18.2815 78.9717 18.7684 78.9513 19.3871Z" fill="#263238"/>
<path d="M89.257 19.3923C89.2371 20.0104 89.703 20.5258 90.2983 20.5433C90.8931 20.5608 91.3922 20.0745 91.412 19.4559C91.4324 18.8378 90.966 18.3218 90.3712 18.3043C89.7759 18.2874 89.2774 18.7742 89.257 19.3923Z" fill="#263238"/>
<path d="M73.6325 16.5235C73.6722 17.0716 74.022 17.5813 74.2016 17.7947C74.2961 17.9072 74.3835 18.0553 74.4302 18.2477C74.6407 19.1148 74.8203 20.7579 75.2313 21.6809C75.6442 22.6027 76.5054 24.0651 78.9269 24.1205C79.398 24.1322 79.8149 24.0937 80.1846 24.0144C80.2167 24.0086 80.2487 24.0004 80.2797 23.994C80.6709 23.903 81.0085 23.7642 81.3018 23.5917C81.3222 23.5794 81.3432 23.5666 81.3624 23.5538C81.3928 23.5363 81.4213 23.5182 81.4499 23.4984C81.4755 23.482 81.5006 23.464 81.5595 23.4226C81.5945 23.3981 81.6277 23.373 81.661 23.3462C81.6994 23.317 81.7356 23.2873 81.7718 23.2558C81.8079 23.2261 81.8429 23.1952 81.8779 23.1619C81.9473 23.0978 82.012 23.0313 82.0755 22.9619C82.4335 22.573 82.6919 22.117 82.8965 21.6564C83.4295 20.4564 83.2913 18.7772 84.1682 18.583C84.2009 18.576 84.237 18.5702 84.2732 18.5678C84.3093 18.5637 84.3472 18.5632 84.3869 18.5632C85.5793 18.5807 85.4463 20.4098 86.114 21.7153C86.7793 23.0232 87.8824 24.2983 90.469 24.3345C90.5844 24.3368 90.6964 24.3345 90.8037 24.3316C90.8952 24.3275 90.9844 24.3228 91.0702 24.3135C91.2923 24.2978 91.5005 24.2663 91.6929 24.2255C91.7599 24.2103 91.8252 24.1963 91.8888 24.18C91.9523 24.1637 92.0159 24.1444 92.076 24.1269C92.115 24.1164 92.1547 24.103 92.1943 24.0896C92.4579 23.9981 92.6888 23.8879 92.8946 23.7607C92.9762 23.7094 93.0526 23.6575 93.1296 23.6027C93.2771 23.4937 93.4077 23.3782 93.5342 23.2476C93.922 22.8441 94.1564 22.3981 94.3179 22.0342C94.7197 21.1276 94.8246 19.485 95.024 18.6296C95.0777 18.4022 95.1476 18.2442 95.2217 18.1346C95.389 17.8868 95.7884 17.4565 95.8042 16.9078C95.8199 16.3591 95.4333 15.881 95.0841 15.8303C94.8812 15.8011 94.6689 15.7725 94.4497 15.7457C92.4089 15.4985 89.7477 15.3895 88.1559 15.8215C86.16 16.3673 85.4679 17.0069 84.3548 16.9912C83.314 16.9667 82.6382 16.3031 80.7479 15.6857C79.2394 15.1953 76.752 15.2099 74.8523 15.3836C74.6488 15.4023 74.4523 15.4227 74.264 15.4454C73.9375 15.4822 73.5929 15.9754 73.6325 16.5235ZM86.7623 17.7719C86.8679 17.6168 87.0661 17.4565 87.3303 17.3078C87.3629 17.2868 87.3967 17.2687 87.4329 17.2506C87.4515 17.2396 87.4702 17.2302 87.4894 17.2209C87.5781 17.1748 87.672 17.1299 87.7711 17.088C87.8533 17.0518 87.9408 17.0157 88.0311 16.9813C88.2929 16.8798 88.5827 16.7894 88.883 16.713C88.9944 16.6851 89.1075 16.6577 89.2224 16.6343C89.511 16.5719 89.8049 16.5265 90.0993 16.4961C90.1699 16.4886 90.2387 16.4816 90.304 16.4798C92.2258 16.3235 93.4252 16.7766 93.8614 17.1708C94.3132 17.5801 94.1092 19.355 93.9261 20.2564C93.9214 20.2786 93.9167 20.3007 93.9121 20.3235C93.9074 20.3456 93.9028 20.3695 93.8981 20.3935C93.8759 20.5025 93.8497 20.6261 93.8159 20.7573C93.7966 20.8296 93.7756 20.906 93.7535 20.9829C93.7517 20.987 93.7517 20.9899 93.75 20.9923C93.715 21.1141 93.6724 21.2395 93.6217 21.3689V21.3701C93.6054 21.4121 93.5873 21.4564 93.5692 21.499C93.5599 21.524 93.5482 21.5497 93.5348 21.5759C93.5232 21.6045 93.5103 21.6325 93.4952 21.6617C93.4789 21.6972 93.4608 21.734 93.4421 21.7695C93.4223 21.8098 93.4007 21.85 93.3774 21.8891C93.3541 21.931 93.329 21.973 93.3004 22.0162C93.2754 22.0576 93.2468 22.1013 93.2165 22.1439C92.7395 22.8336 91.9325 23.415 90.5302 23.4109C89.1431 23.408 88.2591 22.931 87.6929 22.3293L87.6912 22.3287C87.1303 21.7287 86.8807 21.0074 86.7612 20.5077C86.5244 19.4961 86.3874 18.3206 86.7623 17.7719ZM75.4587 16.8314C75.5649 16.73 75.7205 16.6262 75.9281 16.534C75.9409 16.5276 75.952 16.523 75.9648 16.5177C76.029 16.4886 76.0972 16.4617 76.1724 16.4361C76.2127 16.4227 76.2564 16.4075 76.2995 16.3953C76.3334 16.3854 76.3701 16.3737 76.4051 16.3655C76.429 16.3574 76.4535 16.3527 76.4756 16.3469C76.4855 16.3434 76.4949 16.3416 76.503 16.3405C76.5369 16.3317 76.5724 16.3241 76.6074 16.316C76.7438 16.2856 76.8919 16.2617 77.0494 16.2431C77.1269 16.2332 77.2068 16.2244 77.289 16.2198C77.3357 16.2151 77.3841 16.2128 77.4336 16.2093C77.4709 16.2069 77.5077 16.2058 77.545 16.2046C77.6435 16.2023 77.7462 16.1999 77.8511 16.2017C77.8884 16.2023 77.9257 16.2023 77.9642 16.2034C77.998 16.204 78.0336 16.2052 78.0692 16.2063C78.3438 16.2168 78.6394 16.2442 78.9549 16.2897C80.3251 16.488 81.7566 17.123 82.1298 17.6862C82.5029 18.2489 82.4196 19.4197 82.2405 20.4226C82.2044 20.6209 82.1513 20.8512 82.0674 21.0943C82.0627 21.1106 82.0551 21.1281 82.0493 21.1468C82.0417 21.169 82.0341 21.1917 82.0248 21.215C82.019 21.2302 82.0143 21.2453 82.0079 21.2605C81.9974 21.2873 81.9869 21.3147 81.9741 21.341C81.9508 21.3975 81.9263 21.4517 81.9 21.5071C81.8785 21.5538 81.854 21.6022 81.8289 21.6488C81.8196 21.6663 81.8102 21.6832 81.8009 21.699C81.7834 21.7293 81.7648 21.7619 81.7443 21.794C81.7286 21.8208 81.7117 21.8482 81.693 21.8762C81.6913 21.8803 81.6884 21.885 81.6855 21.8896C81.2085 22.6202 80.3572 23.25 78.8319 23.1928C78.2569 23.1742 77.7817 23.0453 77.394 22.8476C76.0325 22.1555 75.6844 20.6249 75.5223 19.9153C75.3188 19.0086 75.0523 17.2232 75.4587 16.8314Z" fill="#263238"/>
<path d="M84.7162 18.6261L84.5121 26.1217L80.3291 24.9141L84.2282 18.5643C84.4089 18.5463 84.5693 18.5725 84.7162 18.6261Z" fill="#874C4C"/>
</svg>
