<svg width="150" height="229" viewBox="0 0 150 229" fill="none" xmlns="http://www.w3.org/2000/svg">
<path d="M84.2285 222.467L83.9551 224H77.0508L77.3145 222.467H84.2285ZM79.8926 209.781L77.4219 224H75.5762L78.0469 209.781H79.8926ZM89.5117 213.434L87.6758 224H85.9082L87.7441 213.434H89.5117ZM88.0957 210.66C88.0957 210.354 88.1901 210.1 88.3789 209.898C88.5742 209.69 88.8249 209.583 89.1309 209.576C89.4368 209.57 89.6875 209.664 89.8828 209.859C90.0846 210.055 90.1823 210.302 90.1758 210.602C90.1758 210.901 90.0749 211.152 89.873 211.354C89.6777 211.549 89.4303 211.65 89.1309 211.656C88.8314 211.663 88.584 211.575 88.3887 211.393C88.1934 211.204 88.0957 210.96 88.0957 210.66ZM97.0117 221.139C97.0703 220.735 96.9954 220.419 96.7871 220.191C96.5853 219.964 96.3184 219.791 95.9863 219.674C95.6608 219.55 95.3418 219.449 95.0293 219.371C94.6387 219.273 94.2448 219.153 93.8477 219.01C93.4505 218.867 93.0859 218.684 92.7539 218.463C92.4284 218.235 92.168 217.955 91.9727 217.623C91.7839 217.285 91.6992 216.874 91.7188 216.393C91.7448 215.872 91.8815 215.413 92.1289 215.016C92.3828 214.618 92.7083 214.286 93.1055 214.02C93.5091 213.753 93.9486 213.554 94.4238 213.424C94.8991 213.294 95.3711 213.232 95.8398 213.238C96.5039 213.251 97.1061 213.388 97.6465 213.648C98.1934 213.909 98.6263 214.283 98.9453 214.771C99.2643 215.26 99.4141 215.852 99.3945 216.549L97.6465 216.539C97.6595 216.168 97.5846 215.849 97.4219 215.582C97.2591 215.315 97.0345 215.11 96.748 214.967C96.4616 214.817 96.1361 214.739 95.7715 214.732C95.4264 214.726 95.0879 214.781 94.7559 214.898C94.4238 215.009 94.1406 215.185 93.9062 215.426C93.6719 215.66 93.5286 215.966 93.4766 216.344C93.4375 216.624 93.4798 216.855 93.6035 217.037C93.7272 217.213 93.8965 217.356 94.1113 217.467C94.3327 217.571 94.5638 217.659 94.8047 217.73C95.0521 217.796 95.2767 217.854 95.4785 217.906C96.0124 218.056 96.5397 218.245 97.0605 218.473C97.5814 218.701 98.0046 219.016 98.3301 219.42C98.6556 219.817 98.8021 220.341 98.7695 220.992C98.7435 221.546 98.597 222.027 98.3301 222.438C98.0697 222.841 97.7311 223.176 97.3145 223.443C96.9043 223.704 96.4518 223.896 95.957 224.02C95.4622 224.143 94.9674 224.202 94.4727 224.195C93.7891 224.182 93.151 224.042 92.5586 223.775C91.9727 223.502 91.5039 223.111 91.1523 222.604C90.8008 222.089 90.6348 221.464 90.6543 220.729L92.4219 220.738C92.4219 221.161 92.5098 221.52 92.6855 221.812C92.8678 222.099 93.1185 222.317 93.4375 222.467C93.7565 222.617 94.1211 222.695 94.5312 222.701C94.8763 222.708 95.2279 222.662 95.5859 222.564C95.9505 222.467 96.263 222.304 96.5234 222.076C96.7904 221.842 96.9531 221.529 97.0117 221.139ZM106.65 213.434L106.406 214.82H100.85L101.094 213.434H106.65ZM103.418 210.865H105.176L103.389 221.402C103.369 221.63 103.376 221.835 103.408 222.018C103.441 222.2 103.519 222.346 103.643 222.457C103.766 222.561 103.955 222.617 104.209 222.623C104.352 222.623 104.492 222.613 104.629 222.594C104.772 222.568 104.915 222.545 105.059 222.525L104.932 224.01C104.723 224.068 104.508 224.111 104.287 224.137C104.072 224.169 103.857 224.182 103.643 224.176C103.102 224.169 102.679 224.033 102.373 223.766C102.067 223.499 101.859 223.154 101.748 222.73C101.637 222.307 101.605 221.855 101.65 221.373L103.418 210.865Z" fill="#B3E9C7"/>
<path d="M51.1514 193.047C51.1514 192.682 51.0941 192.359 50.9795 192.08C50.8721 191.794 50.6787 191.536 50.3994 191.307C50.1273 191.077 49.7477 190.859 49.2607 190.651C48.7809 190.444 48.1722 190.232 47.4346 190.018C46.6611 189.788 45.9629 189.534 45.3398 189.255C44.7168 188.968 44.1833 188.643 43.7393 188.277C43.2952 187.912 42.9551 187.493 42.7188 187.021C42.4824 186.548 42.3643 186.007 42.3643 185.398C42.3643 184.79 42.4896 184.228 42.7402 183.712C42.9909 183.196 43.349 182.749 43.8145 182.369C44.2871 181.982 44.8493 181.682 45.501 181.467C46.1527 181.252 46.8796 181.145 47.6816 181.145C48.8561 181.145 49.8516 181.37 50.668 181.821C51.4915 182.265 52.1182 182.849 52.5479 183.572C52.9775 184.288 53.1924 185.055 53.1924 185.871H51.1299C51.1299 185.284 51.0046 184.765 50.7539 184.313C50.5033 183.855 50.1237 183.497 49.6152 183.239C49.1068 182.974 48.4622 182.842 47.6816 182.842C46.944 182.842 46.3353 182.953 45.8555 183.175C45.3757 183.397 45.0176 183.698 44.7812 184.077C44.5521 184.457 44.4375 184.89 44.4375 185.377C44.4375 185.706 44.5055 186.007 44.6416 186.279C44.7848 186.544 45.0033 186.791 45.2969 187.021C45.5977 187.25 45.9772 187.461 46.4355 187.654C46.901 187.848 47.4561 188.034 48.1006 188.213C48.9886 188.464 49.7549 188.743 50.3994 189.051C51.0439 189.359 51.5739 189.706 51.9893 190.093C52.4118 190.472 52.7233 190.906 52.9238 191.393C53.1315 191.872 53.2354 192.417 53.2354 193.025C53.2354 193.663 53.1064 194.239 52.8486 194.755C52.5908 195.271 52.222 195.711 51.7422 196.076C51.2624 196.441 50.6859 196.724 50.0127 196.925C49.3467 197.118 48.6019 197.215 47.7783 197.215C47.055 197.215 46.3424 197.115 45.6406 196.914C44.946 196.714 44.3122 196.413 43.7393 196.012C43.1735 195.611 42.7188 195.117 42.375 194.529C42.0384 193.935 41.8701 193.247 41.8701 192.467H43.9326C43.9326 193.004 44.0365 193.466 44.2441 193.853C44.4518 194.232 44.7347 194.547 45.0928 194.798C45.458 195.049 45.8698 195.235 46.3281 195.356C46.7936 195.471 47.277 195.528 47.7783 195.528C48.5016 195.528 49.1139 195.428 49.6152 195.228C50.1165 195.027 50.4961 194.741 50.7539 194.368C51.0189 193.996 51.1514 193.555 51.1514 193.047ZM58.6645 180.5V197H56.6771V180.5H58.6645ZM58.1918 190.748L57.3646 190.716C57.3718 189.921 57.49 189.187 57.7191 188.514C57.9483 187.833 58.2706 187.243 58.6859 186.741C59.1013 186.24 59.5954 185.853 60.1684 185.581C60.7484 185.302 61.3894 185.162 62.0912 185.162C62.6641 185.162 63.1798 185.241 63.6381 185.398C64.0964 185.549 64.4867 185.792 64.809 186.129C65.1384 186.465 65.3891 186.902 65.5609 187.439C65.7328 187.969 65.8188 188.618 65.8188 189.384V197H63.8207V189.362C63.8207 188.754 63.7312 188.267 63.5521 187.901C63.3731 187.529 63.1117 187.26 62.768 187.096C62.4242 186.924 62.0017 186.838 61.5004 186.838C61.0063 186.838 60.5551 186.942 60.1469 187.149C59.7458 187.357 59.3985 187.644 59.1049 188.009C58.8184 188.374 58.5928 188.793 58.4281 189.266C58.2706 189.731 58.1918 190.225 58.1918 190.748ZM69.368 191.317V191.07C69.368 190.232 69.4897 189.455 69.7332 188.739C69.9767 188.016 70.3276 187.389 70.7859 186.859C71.2443 186.322 71.7993 185.907 72.451 185.613C73.1027 185.312 73.8331 185.162 74.6424 185.162C75.4588 185.162 76.1928 185.312 76.8445 185.613C77.5034 185.907 78.062 186.322 78.5203 186.859C78.9858 187.389 79.3403 188.016 79.5838 188.739C79.8273 189.455 79.949 190.232 79.949 191.07V191.317C79.949 192.155 79.8273 192.932 79.5838 193.648C79.3403 194.365 78.9858 194.991 78.5203 195.528C78.062 196.058 77.507 196.474 76.8553 196.774C76.2107 197.068 75.4803 197.215 74.6639 197.215C73.8475 197.215 73.1134 197.068 72.4617 196.774C71.81 196.474 71.2514 196.058 70.7859 195.528C70.3276 194.991 69.9767 194.365 69.7332 193.648C69.4897 192.932 69.368 192.155 69.368 191.317ZM71.3553 191.07V191.317C71.3553 191.897 71.4233 192.445 71.5594 192.961C71.6954 193.469 71.8995 193.921 72.1717 194.314C72.451 194.708 72.7983 195.02 73.2137 195.249C73.629 195.471 74.1124 195.582 74.6639 195.582C75.2081 195.582 75.6844 195.471 76.0926 195.249C76.5079 195.02 76.8517 194.708 77.1238 194.314C77.396 193.921 77.6001 193.469 77.7361 192.961C77.8794 192.445 77.951 191.897 77.951 191.317V191.07C77.951 190.497 77.8794 189.957 77.7361 189.448C77.6001 188.933 77.3924 188.478 77.1131 188.084C76.841 187.683 76.4972 187.368 76.0818 187.139C75.6736 186.91 75.1938 186.795 74.6424 186.795C74.0981 186.795 73.6183 186.91 73.2029 187.139C72.7947 187.368 72.451 187.683 72.1717 188.084C71.8995 188.478 71.6954 188.933 71.5594 189.448C71.4233 189.957 71.3553 190.497 71.3553 191.07ZM85.5285 187.611V201.469H83.5305V185.377H85.3566L85.5285 187.611ZM93.3596 191.092V191.317C93.3596 192.162 93.2593 192.947 93.0588 193.67C92.8583 194.386 92.5646 195.009 92.1779 195.539C91.7984 196.069 91.3293 196.481 90.7707 196.774C90.2121 197.068 89.5712 197.215 88.8479 197.215C88.1102 197.215 87.4585 197.093 86.8928 196.85C86.327 196.606 85.8472 196.252 85.4533 195.786C85.0594 195.321 84.7443 194.762 84.508 194.11C84.2788 193.459 84.1213 192.725 84.0354 191.908V190.705C84.1213 189.846 84.2824 189.076 84.5187 188.396C84.7551 187.715 85.0666 187.135 85.4533 186.655C85.8472 186.168 86.3234 185.799 86.882 185.549C87.4406 185.291 88.0852 185.162 88.8156 185.162C89.5461 185.162 90.1942 185.305 90.76 185.592C91.3257 185.871 91.802 186.272 92.1887 186.795C92.5754 187.318 92.8654 187.944 93.0588 188.675C93.2593 189.398 93.3596 190.204 93.3596 191.092ZM91.3615 191.317V191.092C91.3615 190.512 91.3007 189.967 91.1789 189.459C91.0572 188.943 90.8674 188.492 90.6096 188.105C90.3589 187.712 90.0367 187.404 89.6428 187.182C89.2489 186.952 88.7798 186.838 88.2355 186.838C87.7342 186.838 87.2974 186.924 86.925 187.096C86.5598 187.268 86.2482 187.5 85.9904 187.794C85.7326 188.08 85.5214 188.41 85.3566 188.782C85.1991 189.147 85.0809 189.527 85.0021 189.921V192.703C85.1454 193.204 85.3459 193.677 85.6037 194.121C85.8615 194.558 86.2053 194.912 86.635 195.185C87.0646 195.45 87.6053 195.582 88.257 195.582C88.7941 195.582 89.2561 195.471 89.6428 195.249C90.0367 195.02 90.3589 194.708 90.6096 194.314C90.8674 193.921 91.0572 193.469 91.1789 192.961C91.3007 192.445 91.3615 191.897 91.3615 191.317ZM98.982 187.611V201.469H96.984V185.377H98.8102L98.982 187.611ZM106.813 191.092V191.317C106.813 192.162 106.713 192.947 106.512 193.67C106.312 194.386 106.018 195.009 105.631 195.539C105.252 196.069 104.783 196.481 104.224 196.774C103.666 197.068 103.025 197.215 102.301 197.215C101.564 197.215 100.912 197.093 100.346 196.85C99.7805 196.606 99.3007 196.252 98.9068 195.786C98.513 195.321 98.1979 194.762 97.9615 194.11C97.7324 193.459 97.5748 192.725 97.4889 191.908V190.705C97.5748 189.846 97.7359 189.076 97.9723 188.396C98.2086 187.715 98.5201 187.135 98.9068 186.655C99.3007 186.168 99.777 185.799 100.336 185.549C100.894 185.291 101.539 185.162 102.269 185.162C103 185.162 103.648 185.305 104.213 185.592C104.779 185.871 105.255 186.272 105.642 186.795C106.029 187.318 106.319 187.944 106.512 188.675C106.713 189.398 106.813 190.204 106.813 191.092ZM104.815 191.317V191.092C104.815 190.512 104.754 189.967 104.632 189.459C104.511 188.943 104.321 188.492 104.063 188.105C103.812 187.712 103.49 187.404 103.096 187.182C102.702 186.952 102.233 186.838 101.689 186.838C101.188 186.838 100.751 186.924 100.379 187.096C100.013 187.268 99.7018 187.5 99.4439 187.794C99.1861 188.08 98.9749 188.41 98.8102 188.782C98.6526 189.147 98.5344 189.527 98.4557 189.921V192.703C98.5989 193.204 98.7994 193.677 99.0572 194.121C99.315 194.558 99.6588 194.912 100.088 195.185C100.518 195.45 101.059 195.582 101.711 195.582C102.248 195.582 102.71 195.471 103.096 195.249C103.49 195.02 103.812 194.708 104.063 194.314C104.321 193.921 104.511 193.469 104.632 192.961C104.754 192.445 104.815 191.897 104.815 191.317ZM112.607 185.377V197H110.609V185.377H112.607ZM110.459 182.294C110.459 181.972 110.556 181.7 110.749 181.478C110.95 181.256 111.243 181.145 111.63 181.145C112.009 181.145 112.299 181.256 112.5 181.478C112.708 181.7 112.812 181.972 112.812 182.294C112.812 182.602 112.708 182.867 112.5 183.089C112.299 183.304 112.009 183.411 111.63 183.411C111.243 183.411 110.95 183.304 110.749 183.089C110.556 182.867 110.459 182.602 110.459 182.294ZM118.885 187.858V197H116.898V185.377H118.778L118.885 187.858ZM118.412 190.748L117.585 190.716C117.593 189.921 117.711 189.187 117.94 188.514C118.169 187.833 118.491 187.243 118.907 186.741C119.322 186.24 119.816 185.853 120.389 185.581C120.969 185.302 121.61 185.162 122.312 185.162C122.885 185.162 123.4 185.241 123.859 185.398C124.317 185.549 124.707 185.792 125.03 186.129C125.359 186.465 125.61 186.902 125.782 187.439C125.954 187.969 126.039 188.618 126.039 189.384V197H124.041V189.362C124.041 188.754 123.952 188.267 123.773 187.901C123.594 187.529 123.332 187.26 122.989 187.096C122.645 186.924 122.222 186.838 121.721 186.838C121.227 186.838 120.776 186.942 120.368 187.149C119.967 187.357 119.619 187.644 119.326 188.009C119.039 188.374 118.814 188.793 118.649 189.266C118.491 189.731 118.412 190.225 118.412 190.748ZM137.688 185.377H139.493V196.753C139.493 197.777 139.285 198.651 138.87 199.374C138.455 200.097 137.874 200.645 137.13 201.018C136.392 201.397 135.54 201.587 134.573 201.587C134.172 201.587 133.699 201.522 133.155 201.394C132.618 201.272 132.088 201.061 131.565 200.76C131.05 200.466 130.616 200.069 130.265 199.567L131.307 198.386C131.794 198.973 132.303 199.381 132.833 199.61C133.37 199.84 133.9 199.954 134.423 199.954C135.053 199.954 135.597 199.836 136.055 199.6C136.514 199.363 136.868 199.012 137.119 198.547C137.377 198.089 137.506 197.523 137.506 196.85V187.934L137.688 185.377ZM129.685 191.317V191.092C129.685 190.204 129.789 189.398 129.997 188.675C130.212 187.944 130.516 187.318 130.91 186.795C131.311 186.272 131.794 185.871 132.36 185.592C132.926 185.305 133.563 185.162 134.272 185.162C135.003 185.162 135.64 185.291 136.184 185.549C136.736 185.799 137.201 186.168 137.581 186.655C137.968 187.135 138.272 187.715 138.494 188.396C138.716 189.076 138.87 189.846 138.956 190.705V191.693C138.877 192.546 138.723 193.312 138.494 193.992C138.272 194.673 137.968 195.253 137.581 195.732C137.201 196.212 136.736 196.581 136.184 196.839C135.633 197.09 134.988 197.215 134.251 197.215C133.556 197.215 132.926 197.068 132.36 196.774C131.802 196.481 131.322 196.069 130.921 195.539C130.52 195.009 130.212 194.386 129.997 193.67C129.789 192.947 129.685 192.162 129.685 191.317ZM131.673 191.092V191.317C131.673 191.897 131.73 192.442 131.845 192.95C131.966 193.459 132.149 193.906 132.392 194.293C132.643 194.68 132.962 194.984 133.348 195.206C133.735 195.421 134.197 195.528 134.734 195.528C135.393 195.528 135.937 195.389 136.367 195.109C136.797 194.83 137.137 194.461 137.387 194.003C137.645 193.545 137.846 193.047 137.989 192.51V189.921C137.91 189.527 137.789 189.147 137.624 188.782C137.466 188.41 137.259 188.08 137.001 187.794C136.75 187.5 136.439 187.268 136.066 187.096C135.694 186.924 135.257 186.838 134.756 186.838C134.211 186.838 133.742 186.952 133.348 187.182C132.962 187.404 132.643 187.712 132.392 188.105C132.149 188.492 131.966 188.943 131.845 189.459C131.73 189.967 131.673 190.512 131.673 191.092Z" fill="#F0FFF1"/>
<path d="M74.297 165.013C66.2832 165.013 59.7643 158.494 59.7643 150.481C59.7643 142.467 66.2839 135.948 74.297 135.948C82.3101 135.948 88.8297 142.468 88.8297 150.481C88.8297 158.494 82.3101 165.013 74.297 165.013ZM74.297 144.464C70.9795 144.464 68.2806 147.163 68.2806 150.48C68.2806 153.797 70.9795 156.496 74.297 156.496C77.6145 156.496 80.3134 153.797 80.3134 150.48C80.3134 147.163 77.6145 144.464 74.297 144.464Z" fill="#C2F8CB"/>
<path d="M117.205 165.013C109.191 165.013 102.671 158.494 102.671 150.481C102.671 142.467 109.191 135.948 117.205 135.948C125.218 135.948 131.737 142.468 131.737 150.481C131.737 158.494 125.218 165.013 117.205 165.013ZM117.205 144.464C113.887 144.464 111.187 147.163 111.187 150.48C111.187 153.797 113.886 156.496 117.205 156.496C120.522 156.496 123.221 153.797 123.221 150.48C123.221 147.163 120.522 144.464 117.205 144.464Z" fill="#C2F8CB"/>
<path d="M51.4578 153.966C49.7019 153.966 48.0591 152.872 47.442 151.123L17.7534 66.9258H4.25815C1.9061 66.9258 0 65.0197 0 62.6676C0 60.3156 1.9061 58.4095 4.25815 58.4095H20.7666C22.5729 58.4095 24.1817 59.5483 24.7824 61.2516L55.4737 148.291C56.2556 150.509 55.092 152.94 52.8739 153.722C52.4055 153.887 51.9278 153.966 51.4578 153.966Z" fill="#C2F8CB"/>
<path d="M137.294 142.915C136.204 142.915 135.114 142.499 134.283 141.668C132.62 140.006 132.62 137.309 134.283 135.646L141.484 128.445V123.915H43.7676C41.4155 123.915 39.5094 122.008 39.5094 119.656C39.5094 117.304 41.4155 115.398 43.7676 115.398H145.742C148.094 115.398 150 117.304 150 119.656V130.21C150 131.338 149.552 132.422 148.753 133.221L140.305 141.669C139.473 142.499 138.383 142.915 137.294 142.915Z" fill="#C2F8CB"/>
<path d="M145.742 123.914C143.39 123.914 141.484 122.008 141.484 119.656V87.8434C141.484 85.4913 143.39 83.5852 145.742 83.5852C148.094 83.5852 150 85.4913 150 87.8434V119.656C150 122.008 148.093 123.914 145.742 123.914Z" fill="#C2F8CB"/>
<path d="M97.4745 64.3213V20.6404C97.4745 9.24097 106.715 0 118.115 0V43.6809C118.115 55.0804 108.874 64.3213 97.4745 64.3213Z" fill="#B3E9C7"/>
<path d="M62.879 35.0407H69.6061C82.0616 35.0407 92.1596 45.138 92.1596 57.5942V64.3213H85.4325C72.9762 64.3213 62.879 54.2241 62.879 41.7678V35.0407Z" fill="#B3E9C7"/>
<path d="M129.874 105.608C129.874 85.986 113.968 70.0791 94.3452 70.0791C74.7228 70.0791 58.8159 85.986 58.8159 105.608H129.874Z" fill="#FF5F41"/>
</svg>
