<svg width="150" height="166" viewBox="0 0 150 166" fill="none" xmlns="http://www.w3.org/2000/svg">
<path d="M74.297 165.013C66.2832 165.013 59.7643 158.494 59.7643 150.481C59.7643 142.467 66.2839 135.948 74.297 135.948C82.3101 135.948 88.8297 142.468 88.8297 150.481C88.8297 158.494 82.3101 165.013 74.297 165.013ZM74.297 144.464C70.9795 144.464 68.2806 147.163 68.2806 150.48C68.2806 153.797 70.9795 156.496 74.297 156.496C77.6145 156.496 80.3134 153.797 80.3134 150.48C80.3134 147.163 77.6145 144.464 74.297 144.464Z" fill="#C2F8CB"/>
<path d="M117.205 165.013C109.191 165.013 102.671 158.494 102.671 150.481C102.671 142.467 109.191 135.948 117.205 135.948C125.218 135.948 131.737 142.468 131.737 150.481C131.737 158.494 125.218 165.013 117.205 165.013ZM117.205 144.464C113.887 144.464 111.187 147.163 111.187 150.48C111.187 153.797 113.886 156.496 117.205 156.496C120.522 156.496 123.221 153.797 123.221 150.48C123.221 147.163 120.522 144.464 117.205 144.464Z" fill="#C2F8CB"/>
<path d="M51.4578 153.966C49.7019 153.966 48.0591 152.872 47.442 151.123L17.7534 66.9258H4.25815C1.9061 66.9258 0 65.0197 0 62.6676C0 60.3156 1.9061 58.4095 4.25815 58.4095H20.7666C22.5729 58.4095 24.1817 59.5483 24.7824 61.2516L55.4737 148.291C56.2556 150.509 55.092 152.94 52.8739 153.722C52.4055 153.887 51.9278 153.966 51.4578 153.966Z" fill="#C2F8CB"/>
<path d="M137.294 142.915C136.204 142.915 135.114 142.499 134.283 141.668C132.62 140.006 132.62 137.309 134.283 135.646L141.484 128.445V123.915H43.7676C41.4155 123.915 39.5094 122.008 39.5094 119.656C39.5094 117.304 41.4155 115.398 43.7676 115.398H145.742C148.094 115.398 150 117.304 150 119.656V130.21C150 131.338 149.552 132.422 148.753 133.221L140.305 141.669C139.473 142.499 138.383 142.915 137.294 142.915Z" fill="#C2F8CB"/>
<path d="M145.742 123.914C143.39 123.914 141.484 122.008 141.484 119.656V87.8434C141.484 85.4913 143.39 83.5852 145.742 83.5852C148.094 83.5852 150 85.4913 150 87.8434V119.656C150 122.008 148.093 123.914 145.742 123.914Z" fill="#C2F8CB"/>
<path d="M97.4745 64.3213V20.6404C97.4745 9.24097 106.715 0 118.115 0V43.6809C118.115 55.0804 108.874 64.3213 97.4745 64.3213Z" fill="#B3E9C7"/>
<path d="M62.879 35.0407H69.6061C82.0616 35.0407 92.1596 45.138 92.1596 57.5942V64.3213H85.4325C72.9762 64.3213 62.879 54.2241 62.879 41.7678V35.0407Z" fill="#B3E9C7"/>
<path d="M129.874 105.608C129.874 85.986 113.968 70.0791 94.3452 70.0791C74.7228 70.0791 58.8159 85.986 58.8159 105.608H129.874Z" fill="#FF5F41"/>
</svg>
