<svg width="150" height="150" viewBox="0 0 100 100" fill="none" xmlns="http://www.w3.org/2000/svg">
<path d="M25.9077 52.6437L25.5596 53.0027L25.9187 53.3507L37.5052 64.579C37.5062 64.5799 37.5071 64.5809 37.5081 64.5818C39.2346 66.3025 41.5038 67.1625 43.7583 67.1625C46.0129 67.1625 48.2624 66.3107 49.9732 64.6006C49.9736 64.6002 49.974 64.5998 49.9744 64.5994L74.1134 40.8229L74.4696 40.472L74.1187 40.1157L68.2687 34.1782L67.9184 33.8228L67.5623 34.1723L43.7062 57.5849L32.4188 46.6451L32.0598 46.2972L31.7118 46.6562L25.9077 52.6437ZM0.5 50C0.5 22.7053 22.7053 0.5 50 0.5C77.2947 0.5 99.5 22.7053 99.5 50C99.5 77.2947 77.2947 99.5 50 99.5C22.7053 99.5 0.5 77.2947 0.5 50Z" fill="#B3E9C7" stroke="#8367C7"/>
</svg>
