<svg width="723" height="160" viewBox="0 0 723 160" fill="none" xmlns="http://www.w3.org/2000/svg">
<path fill-rule="evenodd" clip-rule="evenodd" d="M0 51.6863L30.0871 37.2445C60.1743 22.8026 120.349 -6.08103 180.523 1.13988C240.697 8.3608 300.871 51.6863 361.046 58.9072C421.22 66.1281 481.394 37.2445 541.569 30.0235C601.743 22.8026 661.917 37.2445 692.004 44.4654L722.092 51.6863V160H692.004C661.917 160 601.743 160 541.569 160C481.394 160 421.22 160 361.046 160C300.871 160 240.697 160 180.523 160C120.349 160 60.1743 160 30.0871 160H0V51.6863Z" fill="#344966"/>
</svg>
